<?xml version="1.0" standalone="no"?>
<!DOCTYPE svg PUBLIC "-//W3C//DTD SVG 20010904//EN"
 "http://www.w3.org/TR/2001/REC-SVG-20010904/DTD/svg10.dtd">
<svg version="1.0" xmlns="http://www.w3.org/2000/svg"
 width="1161.000000pt" height="1161.000000pt" viewBox="0 0 1161.000000 1161.000000"
 preserveAspectRatio="xMidYMid meet">
<metadata>
Created by potrace 1.14, written by Peter Selinger 2001-2017
</metadata>
<g transform="translate(0.000000,1161.000000) scale(0.100000,-0.100000)"
fill="#000000" stroke="none">
<path d="M6045 11577 l-33 -33 -1 -665 c0 -365 0 -674 -1 -686 0 -18 -8 -22
-52 -28 -54 -7 -166 -31 -190 -40 -17 -7 -24 7 -257 577 -29 69 -61 134 -72
144 -27 24 -101 25 -127 1 -10 -9 -23 -32 -29 -51 -9 -30 -5 -46 39 -152 27
-66 55 -135 63 -154 7 -19 50 -123 95 -230 45 -107 84 -200 86 -205 3 -6 -24
-27 -58 -48 -35 -20 -84 -53 -110 -73 l-47 -35 -475 475 c-262 261 -488 482
-504 490 -74 38 -159 -41 -127 -119 7 -17 221 -239 490 -508 l477 -477 -39
-53 c-21 -28 -56 -80 -76 -114 l-38 -62 -72 30 c-40 17 -81 34 -92 39 -166 73
-555 219 -574 215 -88 -17 -114 -124 -43 -173 15 -10 158 -71 317 -135 160
-64 313 -126 341 -138 l51 -22 -13 -51 c-7 -28 -15 -64 -17 -81 -3 -16 -8 -49
-12 -72 l-8 -43 -679 0 c-624 0 -682 -1 -709 -17 -55 -32 -61 -109 -12 -155
l25 -23 689 0 c527 0 689 -3 689 -12 0 -21 44 -63 76 -72 38 -11 87 8 105 41
7 13 13 66 14 128 3 132 10 184 41 287 50 167 131 302 255 422 124 121 249
193 419 242 93 27 142 33 260 33 134 0 193 -9 305 -46 126 -42 207 -86 306
-165 146 -116 256 -273 314 -447 36 -108 46 -170 50 -313 4 -128 11 -155 46
-174 53 -28 114 -7 144 51 l13 25 658 -1 c363 -1 676 2 697 6 54 11 79 44 73
100 -3 34 -11 50 -33 67 l-28 23 -686 0 -687 0 -6 53 c-4 29 -15 85 -25 125
l-18 71 131 52 c72 29 145 58 161 65 17 7 116 47 220 90 105 42 200 85 211 96
65 59 6 178 -80 162 -32 -5 -27 -4 -418 -161 l-296 -120 -51 81 c-28 44 -62
95 -77 113 l-25 31 485 486 c296 296 486 494 487 506 1 11 2 26 3 33 4 24 -26
69 -55 81 -65 27 -59 33 -574 -481 l-486 -485 -52 40 c-29 22 -77 55 -108 74
l-57 33 79 190 c44 105 98 235 120 290 22 55 47 114 54 130 47 103 49 130 16
175 -42 57 -132 45 -163 -22 -24 -50 -268 -639 -268 -647 0 -3 -7 -14 -14 -23
-12 -17 -17 -17 -62 -3 -27 8 -84 20 -126 26 l-78 11 0 679 c0 486 -3 685 -11
703 -13 27 -64 56 -99 56 -12 0 -37 -15 -55 -33z"/>
<path d="M3547 8464 c-47 -26 -62 -100 -29 -140 26 -33 50 -42 142 -49 47 -4
92 -8 100 -10 8 -2 50 -6 93 -10 43 -3 86 -8 95 -10 9 -1 58 -6 107 -10 50 -4
92 -8 95 -10 3 -2 52 -6 110 -10 58 -4 121 -8 140 -10 19 -2 78 -6 130 -10 52
-3 115 -8 140 -10 25 -2 81 -6 125 -10 82 -6 131 -9 385 -20 80 -4 170 -8 200
-10 101 -6 733 -18 905 -17 165 0 699 11 820 17 140 6 334 16 390 20 33 3 98
7 145 10 133 8 222 15 260 20 19 2 78 7 130 10 52 3 102 8 110 10 8 2 47 6 85
10 86 7 261 25 295 30 14 2 48 6 75 10 176 21 181 22 210 57 29 34 31 55 11
102 -16 38 -67 61 -114 52 -15 -3 -56 -8 -92 -12 -36 -3 -78 -8 -95 -10 -16
-2 -52 -6 -80 -9 -27 -3 -66 -8 -85 -10 -19 -3 -57 -7 -85 -9 -99 -9 -181 -17
-215 -21 -19 -2 -73 -7 -120 -10 -47 -3 -101 -8 -120 -10 -19 -2 -80 -7 -135
-10 -55 -4 -120 -8 -145 -10 -25 -2 -106 -7 -180 -10 -74 -4 -166 -8 -203 -10
-203 -11 -550 -18 -842 -18 -314 -1 -879 10 -975 17 -25 2 -117 7 -205 11
-159 6 -241 11 -365 20 -36 3 -96 8 -135 11 -38 3 -90 7 -115 9 -25 2 -88 7
-140 10 -109 8 -144 10 -220 19 -30 3 -82 8 -115 11 -33 3 -76 7 -95 10 -19 2
-64 7 -100 10 -36 3 -81 8 -100 10 -132 15 -166 15 -193 -1z"/>
<path d="M3550 7966 c-37 -21 -54 -58 -47 -103 11 -67 42 -78 272 -98 39 -3
86 -8 105 -10 19 -2 62 -7 95 -10 62 -6 107 -11 185 -20 25 -3 78 -7 117 -10
40 -3 99 -7 130 -10 32 -2 94 -7 138 -10 44 -2 108 -7 143 -10 153 -12 196
-15 332 -21 80 -3 170 -8 200 -9 437 -27 1644 -27 2055 0 28 2 106 6 175 10
69 3 141 8 160 10 19 2 80 6 135 10 55 3 116 8 135 10 19 2 73 6 120 9 47 4
101 9 120 11 19 2 64 7 100 10 36 3 81 8 100 10 19 2 80 9 135 15 109 12 132
15 245 30 64 9 79 14 103 40 30 34 34 67 12 109 -26 52 -59 57 -230 35 -92
-11 -114 -14 -195 -24 -47 -5 -114 -12 -150 -15 -36 -3 -81 -7 -100 -10 -19
-2 -69 -7 -110 -10 -41 -3 -95 -8 -120 -10 -221 -19 -436 -33 -790 -50 -437
-22 -1286 -22 -1755 0 -92 4 -331 16 -415 20 -41 2 -109 6 -150 9 -41 4 -106
8 -145 11 -38 3 -97 7 -130 10 -33 3 -89 7 -125 9 -158 12 -227 17 -250 21
-14 3 -54 7 -90 10 -36 4 -80 8 -98 10 -18 2 -65 7 -105 10 -40 4 -85 8 -102
10 -134 14 -181 15 -205 1z"/>
<path d="M3531 7452 c-63 -63 -24 -158 69 -168 14 -1 52 -5 85 -8 79 -7 261
-25 305 -31 72 -9 238 -24 320 -30 61 -5 139 -11 255 -20 28 -2 100 -7 160
-10 61 -4 118 -9 127 -10 9 -2 92 -7 185 -10 93 -4 191 -8 218 -10 336 -25
1548 -25 1980 0 28 1 113 6 189 10 76 4 146 8 155 10 9 1 75 6 146 10 72 4
137 8 145 10 8 1 51 6 95 9 152 12 200 17 235 21 19 3 64 7 100 10 36 3 76 7
90 10 14 3 54 7 90 10 36 3 76 8 90 10 14 2 50 6 80 10 100 12 115 15 140 34
51 37 48 122 -7 158 -27 18 -38 17 -383 -21 -252 -29 -291 -33 -405 -41 -44
-4 -96 -8 -115 -10 -19 -2 -73 -7 -120 -10 -47 -3 -112 -8 -145 -10 -104 -9
-374 -24 -550 -30 -353 -13 -483 -15 -760 -15 -324 0 -707 6 -875 14 -101 5
-236 12 -445 21 -55 2 -125 7 -155 9 -30 3 -95 8 -145 11 -49 3 -108 8 -130
10 -22 2 -83 7 -135 10 -129 8 -198 14 -245 19 -77 10 -208 23 -320 32 -38 3
-76 7 -82 9 -7 2 -58 7 -112 11 l-100 7 -30 -31z"/>
<path d="M3720 6883 c-418 -740 -740 -1645 -874 -2458 -5 -29 -32 -232 -41
-307 -20 -171 -28 -657 -13 -843 52 -635 248 -1208 576 -1680 62 -88 194 -255
256 -323 39 -43 40 -44 28 -86 -34 -128 58 -331 223 -492 58 -56 223 -184 238
-184 4 0 30 -15 59 -33 108 -68 310 -156 499 -217 83 -27 156 -49 171 -50 4 0
27 -8 50 -16 46 -16 325 -79 398 -89 24 -4 47 -8 50 -10 5 -3 44 -9 130 -21
19 -3 46 -7 60 -9 28 -6 95 -14 155 -20 55 -6 153 -16 195 -20 131 -14 275
-19 555 -19 331 0 478 7 650 29 17 2 53 7 80 10 86 11 119 16 145 20 14 3 41
7 60 10 303 47 664 168 865 290 127 77 258 189 311 268 16 23 32 44 35 47 18
14 63 125 83 202 17 65 22 111 20 175 -2 92 -6 105 -89 338 -65 182 -141 419
-205 644 -42 146 -127 478 -149 581 -6 30 -20 93 -30 140 -11 47 -24 112 -30
145 -6 33 -13 69 -15 80 -14 70 -35 198 -41 240 -8 63 -14 103 -20 135 -3 14
-7 48 -10 75 -3 28 -7 66 -10 85 -6 49 -15 126 -20 185 -2 28 -6 73 -9 100
-24 222 -24 887 -1 1014 1 9 6 52 10 96 4 44 8 87 10 95 3 16 14 92 21 150 7
56 54 288 75 370 11 41 22 83 24 92 15 65 85 273 127 378 90 224 196 417 308
565 21 28 42 62 45 78 14 55 -33 117 -91 117 -43 0 -76 -27 -139 -116 -33 -47
-65 -91 -71 -97 -5 -7 -13 -20 -17 -29 -3 -10 -22 -43 -42 -73 -19 -31 -35
-62 -35 -70 0 -7 -4 -16 -9 -20 -10 -6 -43 -73 -93 -190 -17 -38 -36 -83 -43
-100 -79 -180 -185 -571 -231 -855 -3 -19 -7 -44 -9 -55 -2 -11 -4 -27 -4 -36
-1 -12 -27 -19 -118 -33 -65 -10 -127 -20 -138 -22 -21 -4 -65 -10 -132 -19
-24 -3 -60 -7 -80 -10 -21 -3 -58 -7 -83 -10 -25 -3 -61 -7 -80 -10 -47 -5
-143 -15 -207 -20 l-53 -4 -1 117 c0 64 -2 133 -4 152 -9 122 -17 214 -20 233
-2 12 -6 45 -10 72 -8 68 -41 268 -55 333 l-12 53 -111 -2 c-329 -5 -612 -111
-902 -337 -82 -64 -293 -275 -349 -350 -22 -28 -41 -50 -42 -49 -1 1 4 31 11
67 12 57 17 95 31 215 5 47 4 284 -1 345 -13 129 -54 308 -102 435 -35 95
-125 268 -174 335 l-40 55 4 -36 c11 -89 -38 -134 -277 -255 -222 -112 -308
-165 -383 -236 -61 -59 -141 -162 -183 -240 l-29 -52 -11 29 c-7 17 -23 57
-35 90 -62 159 -159 358 -277 565 -67 117 -259 410 -270 410 -3 0 -20 -25 -38
-57z"/>
</g>
</svg>
