<?xml version="1.0" encoding="UTF-8" standalone="no"?>
<!DOCTYPE svg PUBLIC "-//W3C//DTD SVG 1.1//EN" "http://www.w3.org/Graphics/SVG/1.1/DTD/svg11.dtd">
<svg width="100%" height="100%" viewBox="0 0 42 42" version="1.1" xmlns="http://www.w3.org/2000/svg" xmlns:xlink="http://www.w3.org/1999/xlink" xml:space="preserve" xmlns:serif="http://www.serif.com/" style="fill-rule:evenodd;clip-rule:evenodd;stroke-linejoin:round;stroke-miterlimit:2;">
    <g transform="matrix(1,0,0,1,-993.278,-5093.93)">
        <g transform="matrix(1.10169,0,0,4.66915,25.3936,-1765.76)">
            <g id="facebook" transform="matrix(0.361328,0,0,0.0855796,802.872,1430.47)">
                <g transform="matrix(1,0,0,1,-16.2463,-6.24834e-13)">
                    <path d="M278.103,452.028C263.619,452.03 250.499,457.916 241.009,467.427C231.548,476.908 225.696,489.99 225.698,504.428C225.7,518.865 231.555,531.945 241.017,541.422C250.506,550.927 263.623,556.808 278.103,556.806C292.582,556.808 305.698,550.926 315.188,541.421C324.65,531.944 330.505,518.865 330.507,504.428C330.509,489.99 324.656,476.908 315.196,467.427C305.706,457.917 292.586,452.031 278.103,452.028ZM278.103,460.475C290.241,460.473 301.237,465.407 309.192,473.375C317.135,481.33 322.05,492.31 322.052,504.428C322.054,516.549 317.142,527.531 309.201,535.49C301.244,543.464 290.246,548.402 278.103,548.404C265.96,548.402 254.962,543.463 247.005,535.489C239.064,527.531 234.152,516.548 234.154,504.428C234.156,492.31 239.071,481.33 247.013,473.375C254.969,465.407 265.964,460.473 278.103,460.475Z" style="fill:rgb(239,236,238);"/>
                </g>
                <g transform="matrix(128.85,0,0,128.85,236.537,572.938)">
                    <path d="M0.086,-0.174L0.086,-0.448L0.012,-0.448L0.012,-0.557L0.086,-0.557L0.086,-0.58C0.086,-0.748 0.184,-0.815 0.293,-0.815C0.33,-0.815 0.359,-0.809 0.381,-0.802L0.37,-0.688C0.356,-0.693 0.339,-0.697 0.316,-0.697C0.233,-0.697 0.233,-0.613 0.233,-0.557L0.344,-0.557L0.344,-0.448L0.234,-0.448L0.234,-0.16L0.197,-0.158C0.158,-0.158 0.121,-0.164 0.086,-0.174Z" style="fill:rgb(239,236,238);"/>
                </g>
            </g>
        </g>
    </g>
</svg>
