<?xml version="1.0" encoding="UTF-8" standalone="no"?>
<!DOCTYPE svg PUBLIC "-//W3C//DTD SVG 1.1//EN" "http://www.w3.org/Graphics/SVG/1.1/DTD/svg11.dtd">
<svg width="100%" height="100%" viewBox="0 0 42 42" version="1.1" xmlns="http://www.w3.org/2000/svg" xmlns:xlink="http://www.w3.org/1999/xlink" xml:space="preserve" xmlns:serif="http://www.serif.com/" style="fill-rule:evenodd;clip-rule:evenodd;stroke-linejoin:round;stroke-miterlimit:2;">
    <g transform="matrix(1,0,0,1,-927.895,-5093.93)">
        <g transform="matrix(1.10169,0,0,4.66915,25.3936,-1765.76)">
            <g id="insta" transform="matrix(0.361328,0,0,0.0855796,786.88,1430.47)">
                <g transform="matrix(1,0,0,1,-9.68216,106.336)">
                    <path d="M203.963,373.912C203.962,366.125 200.789,359.07 195.661,353.963C190.533,348.856 183.452,345.696 175.635,345.697C175.635,345.697 127.458,345.704 127.458,345.704C119.645,345.705 112.566,348.864 107.441,353.971C102.317,359.077 99.146,366.129 99.147,373.912C99.147,373.912 99.153,422.272 99.153,422.272C99.152,430.054 102.322,437.104 107.445,442.209C112.569,447.315 119.646,450.474 127.458,450.475C127.458,450.475 175.635,450.481 175.635,450.481C183.45,450.482 190.53,447.323 195.656,442.217C200.783,437.111 203.956,430.058 203.957,422.272C203.957,422.272 203.963,373.912 203.963,373.912ZM195.484,373.912L195.491,422.272C195.491,427.731 193.267,432.676 189.673,436.257C186.079,439.838 181.115,442.056 175.635,442.057C175.635,442.057 127.458,442.063 127.458,442.063C121.976,442.064 117.009,439.847 113.412,436.265C109.815,432.682 107.588,427.734 107.587,422.272C107.587,422.272 107.593,373.912 107.593,373.912C107.593,368.452 109.82,363.505 113.416,359.924C117.012,356.343 121.978,354.126 127.458,354.127C127.458,354.127 175.635,354.134 175.635,354.134C181.114,354.134 186.076,356.351 189.669,359.932C193.262,363.512 195.485,368.456 195.484,373.912Z" style="fill:rgb(239,236,238);"/>
                </g>
                <g transform="matrix(1,0,0,1,-37.9544,102.152)">
                    <path d="M179.819,369.781C170.835,369.783 162.696,373.433 156.81,379.333C150.945,385.212 147.316,393.324 147.319,402.276C147.321,411.227 150.951,419.336 156.818,425.211C162.704,431.105 170.839,434.752 179.819,434.749C188.799,434.751 196.933,431.104 202.819,425.21C208.686,419.335 212.317,411.226 212.319,402.276C212.321,393.324 208.692,385.213 202.828,379.334C196.942,373.434 188.803,369.783 179.819,369.781ZM179.819,378.227C186.458,378.225 192.472,380.923 196.823,385.281C201.171,389.635 203.862,395.643 203.864,402.276C203.865,408.91 201.178,414.922 196.832,419.279C192.479,423.642 186.463,426.346 179.819,426.347C173.176,426.345 167.159,423.641 162.807,419.278C158.461,414.922 155.773,408.91 155.775,402.276C155.777,395.644 158.467,389.635 162.815,385.281C167.166,380.924 173.18,378.225 179.819,378.227Z" style="fill:rgb(239,236,238);"/>
                </g>
                <g transform="matrix(1,0,0,1,-12.866,105.661)">
                    <circle cx="184.93" cy="367.384" r="5.111" style="fill:rgb(239,236,238);"/>
                </g>
            </g>
        </g>
    </g>
</svg>
