<?xml version="1.0" encoding="UTF-8" standalone="no"?>
<!DOCTYPE svg PUBLIC "-//W3C//DTD SVG 1.1//EN" "http://www.w3.org/Graphics/SVG/1.1/DTD/svg11.dtd">
<svg width="100%" height="100%" viewBox="0 0 195 65" version="1.1" xmlns="http://www.w3.org/2000/svg" xmlns:xlink="http://www.w3.org/1999/xlink" xml:space="preserve" xmlns:serif="http://www.serif.com/" style="fill-rule:evenodd;clip-rule:evenodd;stroke-linejoin:round;stroke-miterlimit:2;">
    <g transform="matrix(1,0,0,1,-491.482,-37.833)">
        <g transform="matrix(1.02842,0,0,4.11239,-220.973,-5049.37)">
            <g transform="matrix(0.359739,0,0,0.359739,581.235,779.675)">
                <g transform="matrix(0.640129,0,0,0.0612436,-1059.75,1153.82)">
                    <path d="M2200.34,2107.97L2200.34,2375.17L2176.82,2375.17L2176.82,2107.97L2139.86,2107.97L2139.86,2033.65L2237.36,2033.65L2237.36,2107.97L2200.34,2107.97Z" style="fill:white;fill-rule:nonzero;"/>
                    <path d="M2364.34,2204.66C2364.34,2233.99 2362.96,2259.88 2360.22,2282.33C2357.47,2304.78 2353.54,2323.55 2348.43,2338.63C2343.31,2353.71 2337.11,2365.1 2329.82,2372.81C2322.53,2380.51 2314.34,2384.37 2305.25,2384.37C2296.17,2384.37 2287.96,2380.51 2280.62,2372.81C2273.29,2365.1 2267.05,2353.71 2261.89,2338.63C2256.74,2323.55 2252.76,2304.78 2249.97,2282.33C2247.18,2259.88 2245.79,2233.99 2245.79,2204.66C2245.79,2175.33 2247.18,2149.43 2249.97,2126.98C2252.76,2104.53 2256.74,2085.76 2261.89,2070.68C2267.05,2055.6 2273.29,2044.21 2280.62,2036.51C2287.96,2028.8 2296.17,2024.95 2305.25,2024.95C2314.34,2024.95 2322.53,2028.8 2329.82,2036.51C2337.11,2044.21 2343.31,2055.6 2348.43,2070.68C2353.54,2085.76 2357.47,2104.53 2360.22,2126.98C2362.96,2149.43 2364.34,2175.33 2364.34,2204.66ZM2340.56,2204.66C2340.56,2191.9 2340.05,2179.18 2339.01,2166.5C2337.98,2153.83 2336.14,2142.43 2333.5,2132.33C2330.85,2122.22 2327.25,2114.02 2322.69,2107.72C2318.12,2101.42 2312.31,2098.27 2305.25,2098.27C2300.52,2098.27 2296.36,2099.72 2292.76,2102.62C2289.17,2105.52 2286.07,2109.54 2283.45,2114.68C2280.83,2119.82 2278.63,2125.82 2276.85,2132.7C2275.08,2139.58 2273.66,2146.95 2272.61,2154.82C2271.55,2162.69 2270.8,2170.89 2270.35,2179.43C2269.91,2187.96 2269.69,2196.37 2269.69,2204.66C2269.69,2213.11 2269.91,2221.64 2270.35,2230.26C2270.8,2238.88 2271.55,2247.12 2272.61,2254.99C2273.66,2262.86 2275.08,2270.19 2276.85,2276.99C2278.63,2283.78 2280.83,2289.71 2283.45,2294.76C2286.07,2299.81 2289.17,2303.79 2292.76,2306.69C2296.36,2309.59 2300.52,2311.04 2305.25,2311.04C2312.31,2311.04 2318.12,2307.89 2322.69,2301.6C2327.25,2295.3 2330.85,2287.1 2333.5,2276.99C2336.14,2266.88 2337.98,2255.49 2339.01,2242.81C2340.05,2230.13 2340.56,2217.42 2340.56,2204.66ZM2280.72,1997.11L2280.72,1919.81L2300.43,1919.81L2300.43,1997.11L2280.72,1997.11ZM2310.01,1997.11L2310.01,1919.81L2329.79,1919.81L2329.79,1997.11L2310.01,1997.11Z" style="fill:white;fill-rule:nonzero;"/>
                    <path d="M2465.9,2110.95C2465.26,2110.12 2464.34,2109 2463.14,2107.6C2461.93,2106.19 2460.53,2104.78 2458.92,2103.37C2457.32,2101.96 2455.55,2100.76 2453.63,2099.76C2451.71,2098.77 2449.73,2098.27 2447.7,2098.27C2443.48,2098.27 2439.53,2100.3 2435.88,2104.36C2432.22,2108.42 2428.81,2113.81 2425.64,2120.52C2422.47,2127.23 2419.52,2134.85 2416.8,2143.39C2414.07,2151.92 2411.57,2160.66 2409.28,2169.61L2409.28,2375.17L2385.76,2375.17L2385.76,2033.65L2409.28,2033.65L2409.28,2089.08C2412.12,2080.79 2415.02,2072.8 2418,2065.09C2420.98,2057.39 2424.09,2050.55 2427.32,2044.59C2430.55,2038.62 2433.97,2033.86 2437.56,2030.29C2441.15,2026.73 2444.95,2024.95 2448.97,2024.95C2450.49,2024.95 2452.05,2025.24 2453.63,2025.82C2455.21,2026.4 2456.76,2027.1 2458.26,2027.93C2459.76,2028.76 2461.16,2029.67 2462.47,2030.66C2463.78,2031.66 2464.92,2032.65 2465.9,2033.65L2465.9,2110.95Z" style="fill:white;fill-rule:nonzero;"/>
                    <path d="M2593.51,2204.66C2593.51,2233.99 2592.14,2259.88 2589.39,2282.33C2586.64,2304.78 2582.71,2323.55 2577.6,2338.63C2572.49,2353.71 2566.28,2365.1 2558.99,2372.81C2551.7,2380.51 2543.51,2384.37 2534.43,2384.37C2525.34,2384.37 2517.13,2380.51 2509.8,2372.81C2502.47,2365.1 2496.22,2353.71 2491.06,2338.63C2485.91,2323.55 2481.93,2304.78 2479.15,2282.33C2476.36,2259.88 2474.96,2233.99 2474.96,2204.66C2474.96,2175.33 2476.36,2149.43 2479.15,2126.98C2481.93,2104.53 2485.91,2085.76 2491.06,2070.68C2496.22,2055.6 2502.47,2044.21 2509.8,2036.51C2517.13,2028.8 2525.34,2024.95 2534.43,2024.95C2543.51,2024.95 2551.7,2028.8 2558.99,2036.51C2566.28,2044.21 2572.49,2055.6 2577.6,2070.68C2582.71,2085.76 2586.64,2104.53 2589.39,2126.98C2592.14,2149.43 2593.51,2175.33 2593.51,2204.66ZM2569.74,2204.66C2569.74,2191.9 2569.22,2179.18 2568.18,2166.5C2567.15,2153.83 2565.31,2142.43 2562.67,2132.33C2560.03,2122.22 2556.42,2114.02 2551.86,2107.72C2547.3,2101.42 2541.48,2098.27 2534.43,2098.27C2529.69,2098.27 2525.53,2099.72 2521.94,2102.62C2518.35,2105.52 2515.24,2109.54 2512.62,2114.68C2510,2119.82 2507.8,2125.82 2506.03,2132.7C2504.25,2139.58 2502.84,2146.95 2501.78,2154.82C2500.72,2162.69 2499.97,2170.89 2499.53,2179.43C2499.08,2187.96 2498.86,2196.37 2498.86,2204.66C2498.86,2213.11 2499.08,2221.64 2499.53,2230.26C2499.97,2238.88 2500.72,2247.12 2501.78,2254.99C2502.84,2262.86 2504.25,2270.19 2506.03,2276.99C2507.8,2283.78 2510,2289.71 2512.62,2294.76C2515.24,2299.81 2518.35,2303.79 2521.94,2306.69C2525.53,2309.59 2529.69,2311.04 2534.43,2311.04C2541.48,2311.04 2547.3,2307.89 2551.86,2301.6C2556.42,2295.3 2560.03,2287.1 2562.67,2276.99C2565.31,2266.88 2567.15,2255.49 2568.18,2242.81C2569.22,2230.13 2569.74,2217.42 2569.74,2204.66ZM2509.89,1997.11L2509.89,1919.81L2529.61,1919.81L2529.61,1997.11L2509.89,1997.11ZM2539.18,1997.11L2539.18,1919.81L2558.96,1919.81L2558.96,1997.11L2539.18,1997.11Z" style="fill:white;fill-rule:nonzero;"/>
                    <path d="M2697.67,2375.17C2697.25,2356.61 2696.11,2340.33 2694.24,2326.33C2692.39,2312.33 2690.05,2300.27 2687.24,2290.16C2684.43,2280.05 2681.26,2271.68 2677.73,2265.06C2674.2,2258.43 2670.58,2253.17 2666.86,2249.27C2663.14,2245.38 2659.43,2242.64 2655.73,2241.07C2652.03,2239.5 2648.6,2238.71 2645.43,2238.71L2638.46,2238.71L2638.46,2375.17L2614.94,2375.17L2614.94,2033.65L2638.46,2033.65L2638.46,2165.39L2643.28,2165.39C2646.53,2165.39 2649.93,2164.39 2653.48,2162.4C2657.03,2160.41 2660.55,2157.26 2664.04,2152.96C2667.52,2148.65 2670.87,2143.1 2674.09,2136.3C2677.3,2129.51 2680.17,2121.22 2682.71,2111.45C2685.24,2101.67 2687.36,2090.36 2689.05,2077.52C2690.74,2064.68 2691.79,2050.05 2692.22,2033.65L2716.18,2033.65C2715.76,2051.71 2714.84,2068.03 2713.42,2082.61C2712.01,2097.2 2710.25,2110.25 2708.16,2121.76C2706.07,2133.28 2703.73,2143.35 2701.16,2151.96C2698.58,2160.58 2695.94,2167.99 2693.23,2174.21C2690.53,2180.42 2687.83,2185.56 2685.15,2189.62C2682.46,2193.68 2679.96,2196.79 2677.64,2198.94C2680.59,2200.76 2683.67,2203.62 2686.86,2207.52C2690.05,2211.41 2693.21,2216.55 2696.34,2222.93C2699.47,2229.31 2702.45,2237.14 2705.31,2246.41C2708.16,2255.7 2710.73,2266.55 2713.01,2278.98C2715.29,2291.4 2717.19,2305.57 2718.72,2321.48C2720.24,2337.39 2721.21,2355.28 2721.63,2375.17L2697.67,2375.17Z" style="fill:white;fill-rule:nonzero;"/>
                    <path d="M2764.93,2033.65L2764.93,2226.03C2764.93,2238.79 2765.2,2250.35 2765.76,2260.71C2766.3,2271.06 2767.32,2279.93 2768.8,2287.3C2770.28,2294.68 2772.35,2300.39 2775.01,2304.45C2777.67,2308.51 2781.14,2310.54 2785.41,2310.54C2788.62,2310.54 2791.99,2308.8 2795.52,2305.32C2799.05,2301.84 2802.55,2297.2 2806.01,2291.4C2809.48,2285.61 2812.78,2278.93 2815.93,2271.39C2819.08,2263.86 2821.9,2256.03 2824.39,2247.91L2824.39,2033.65L2847.85,2033.65L2847.85,2375.17L2824.39,2375.17L2824.39,2328.44C2821.44,2335.07 2818.29,2341.74 2814.95,2348.45C2811.61,2355.16 2808.06,2361.21 2804.3,2366.59C2800.54,2371.98 2796.54,2376.37 2792.32,2379.77C2788.09,2383.16 2783.63,2384.86 2778.94,2384.86C2773.07,2384.86 2767.8,2382.09 2763.16,2376.54C2758.51,2370.99 2754.58,2363.11 2751.36,2352.92C2748.15,2342.73 2745.69,2330.39 2743.98,2315.89C2742.27,2301.39 2741.41,2285.19 2741.41,2267.29L2741.41,2033.65L2764.93,2033.65ZM2770.26,1997.11L2770.26,1919.81L2789.97,1919.81L2789.97,1997.11L2770.26,1997.11ZM2799.54,1997.11L2799.54,1919.81L2819.32,1919.81L2819.32,1997.11L2799.54,1997.11Z" style="fill:white;fill-rule:nonzero;"/>
                    <path d="M2898.63,2229.02C2898.63,2243.27 2898.97,2254.91 2899.64,2263.94C2900.32,2272.97 2901.42,2280.14 2902.94,2285.44C2904.46,2290.74 2906.44,2294.39 2908.87,2296.38C2911.3,2298.36 2914.29,2299.36 2917.84,2299.36L2962.47,2299.36L2962.47,2375.17L2913.02,2375.17C2906.18,2375.17 2900.35,2372.97 2895.56,2368.58C2890.76,2364.19 2886.84,2357.4 2883.8,2348.2C2880.75,2339 2878.55,2327.36 2877.17,2313.28C2875.8,2299.19 2875.11,2282.46 2875.11,2263.07L2875.11,2033.65L2898.63,2033.65L2898.63,2229.02Z" style="fill:white;fill-rule:nonzero;"/>
                </g>
                <g transform="matrix(0.421107,0,0,0.0362215,-572.707,1228.87)">
                    <path d="M2236.55,2238.36C2236.55,2255.86 2236.03,2271.4 2234.98,2284.99C2233.94,2298.58 2232.46,2310.41 2230.56,2320.49C2228.66,2330.56 2226.36,2339.11 2223.64,2346.14C2220.92,2353.16 2217.9,2358.8 2214.58,2363.04C2211.25,2367.28 2207.64,2370.36 2203.75,2372.29C2199.85,2374.21 2195.76,2375.17 2191.47,2375.17L2151.06,2375.17L2151.06,2101.95L2191.35,2101.95C2197.77,2101.95 2203.74,2104.14 2209.25,2108.51C2214.76,2112.89 2219.54,2120.35 2223.58,2130.89C2227.63,2141.42 2230.8,2155.44 2233.1,2172.94C2235.4,2190.44 2236.55,2212.25 2236.55,2238.36ZM2229.25,2238.46C2229.25,2223.6 2228.84,2210.47 2228,2199.05C2227.16,2187.64 2225.96,2177.73 2224.41,2169.3C2222.85,2160.88 2220.95,2153.81 2218.7,2148.11C2216.46,2142.4 2213.93,2137.79 2211.11,2134.27C2208.3,2130.76 2205.24,2128.27 2201.93,2126.81C2198.62,2125.35 2195.11,2124.62 2191.38,2124.62L2158.18,2124.62L2158.18,2352.5L2191.38,2352.5C2196.97,2352.5 2202.08,2350.74 2206.72,2347.23C2211.36,2343.71 2215.35,2337.61 2218.67,2328.92C2222,2320.23 2224.6,2308.55 2226.46,2293.89C2228.32,2279.23 2229.25,2260.75 2229.25,2238.46Z" style="fill:white;fill-rule:nonzero;"/>
                    <path d="M2374.57,2238.76C2374.57,2263.28 2373.3,2284.46 2370.75,2302.29C2368.21,2320.12 2364.71,2334.84 2360.27,2346.43C2355.83,2358.03 2350.59,2366.62 2344.55,2372.19C2338.51,2377.75 2332,2380.54 2325.01,2380.54C2317.99,2380.54 2311.43,2377.75 2305.36,2372.19C2299.28,2366.62 2294,2358.03 2289.52,2346.43C2285.04,2334.84 2281.53,2320.12 2278.99,2302.29C2276.44,2284.46 2275.17,2263.28 2275.17,2238.76C2275.17,2222.45 2275.76,2207.64 2276.93,2194.32C2278.11,2180.99 2279.76,2169.06 2281.89,2158.52C2284.02,2147.99 2286.59,2138.87 2289.61,2131.18C2292.63,2123.49 2295.99,2117.1 2299.69,2111.99C2303.39,2106.89 2307.37,2103.11 2311.62,2100.66C2315.88,2098.21 2320.34,2096.98 2325.01,2096.98C2332,2096.98 2338.51,2099.76 2344.55,2105.33C2350.59,2110.9 2355.83,2119.48 2360.27,2131.08C2364.71,2142.68 2368.21,2157.4 2370.75,2175.23C2373.3,2193.06 2374.57,2214.24 2374.57,2238.76ZM2367.27,2238.76C2367.27,2219.41 2366.37,2202.3 2364.56,2187.46C2362.76,2172.61 2360.09,2160.12 2356.55,2149.97C2353.01,2139.83 2348.61,2132.14 2343.35,2126.91C2338.08,2121.67 2331.97,2119.05 2325.01,2119.05C2318.05,2119.05 2311.92,2121.7 2306.62,2127.01C2301.31,2132.31 2296.87,2140.03 2293.3,2150.17C2289.73,2160.31 2287.03,2172.84 2285.2,2187.76C2283.38,2202.67 2282.46,2219.67 2282.46,2238.76C2282.46,2258.11 2283.38,2275.22 2285.2,2290.06C2287.03,2304.91 2289.73,2317.4 2293.3,2327.55C2296.87,2337.69 2301.31,2345.38 2306.62,2350.61C2311.92,2355.85 2318.05,2358.47 2325.01,2358.47C2331.97,2358.47 2338.08,2355.85 2343.35,2350.61C2348.61,2345.38 2353.01,2337.69 2356.55,2327.55C2360.09,2317.4 2362.76,2304.91 2364.56,2290.06C2366.37,2275.22 2367.27,2258.11 2367.27,2238.76ZM2345.22,2039.71L2320.14,2076.7L2317.91,2061.19L2342.31,2018.83L2345.22,2039.71Z" style="fill:white;fill-rule:nonzero;"/>
                    <path d="M2476.85,2123.03C2475.75,2121.84 2474.22,2120.55 2472.26,2119.15C2470.3,2117.76 2467.79,2117.07 2464.71,2117.07C2460.45,2117.07 2456.46,2118.89 2452.71,2122.53C2448.97,2126.18 2445.49,2131.12 2442.28,2137.35C2439.07,2143.58 2436.1,2150.84 2433.36,2159.12C2430.63,2167.41 2428.16,2176.19 2425.95,2185.47L2425.95,2375.17L2418.83,2375.17L2418.83,2101.95L2425.95,2101.95L2425.95,2157.63C2428.5,2148.48 2431.26,2140.07 2434.25,2132.38C2437.23,2124.69 2440.37,2118.09 2443.68,2112.59C2446.99,2107.09 2450.45,2102.78 2454.08,2099.67C2457.71,2096.55 2461.46,2094.99 2465.34,2094.99C2466.67,2094.99 2467.86,2095.09 2468.93,2095.29C2469.99,2095.49 2470.97,2095.76 2471.86,2096.09C2472.76,2096.42 2473.6,2096.78 2474.4,2097.18C2475.2,2097.58 2476.01,2098.04 2476.85,2098.57L2476.85,2123.03Z" style="fill:white;fill-rule:nonzero;"/>
                    <path d="M2584.26,2375.17L2584.26,2344.94C2581.53,2350.11 2578.42,2354.89 2574.94,2359.26C2571.47,2363.64 2567.8,2367.41 2563.94,2370.6C2560.09,2373.78 2556.13,2376.23 2552.06,2377.95C2547.99,2379.68 2544.01,2380.54 2540.09,2380.54C2535,2380.54 2530.43,2378.95 2526.39,2375.76C2522.34,2372.58 2518.91,2367.85 2516.1,2361.55C2513.28,2355.25 2511.12,2347.43 2509.6,2338.08C2508.08,2328.74 2507.32,2317.9 2507.32,2305.57C2507.32,2293.38 2508.2,2282.61 2509.97,2273.26C2511.74,2263.91 2514.25,2255.76 2517.52,2248.8C2520.79,2241.84 2524.73,2235.94 2529.35,2231.1C2533.97,2226.26 2539.12,2222.16 2544.82,2218.78C2550.52,2215.39 2556.69,2212.61 2563.32,2210.42C2569.95,2208.24 2576.93,2206.41 2584.26,2204.95L2584.26,2184.08C2584.26,2175.59 2583.81,2168.1 2582.89,2161.61C2581.98,2155.11 2580.71,2149.44 2579.08,2144.61C2577.44,2139.77 2575.52,2135.72 2573.32,2132.47C2571.12,2129.23 2568.73,2126.61 2566.17,2124.62C2563.6,2122.63 2560.9,2121.21 2558.07,2120.35C2555.24,2119.48 2552.4,2119.05 2549.55,2119.05C2545.72,2119.05 2542.22,2119.72 2539.07,2121.04C2535.91,2122.37 2532.97,2124.19 2530.23,2126.51C2527.5,2128.83 2524.87,2131.51 2522.37,2134.56C2519.86,2137.61 2517.33,2140.86 2514.79,2144.31L2514.79,2115.28C2520.07,2110.37 2525.7,2106.1 2531.68,2102.45C2537.67,2098.8 2544.02,2096.98 2550.75,2096.98C2556.45,2096.98 2561.77,2098.67 2566.71,2102.05C2571.65,2105.43 2575.94,2110.83 2579.59,2118.26C2583.24,2125.68 2586.11,2135.26 2588.2,2146.99C2590.28,2158.72 2591.33,2173.01 2591.33,2189.84L2591.33,2375.17L2584.26,2375.17ZM2584.26,2227.03C2571.83,2229.41 2561.21,2232.79 2552.41,2237.17C2543.6,2241.54 2536.41,2246.91 2530.82,2253.28C2525.22,2259.64 2521.13,2267.06 2518.52,2275.55C2515.92,2284.03 2514.62,2293.64 2514.62,2304.38C2514.62,2313.13 2515.25,2320.88 2516.53,2327.64C2517.8,2334.41 2519.64,2340.07 2522.03,2344.65C2524.43,2349.22 2527.34,2352.67 2530.76,2354.99C2534.18,2357.31 2538.02,2358.47 2542.28,2358.47C2544.79,2358.47 2547.39,2357.97 2550.07,2356.97C2552.75,2355.98 2555.42,2354.59 2558.08,2352.8C2560.74,2351.01 2563.37,2348.89 2565.95,2346.43C2568.54,2343.98 2570.97,2341.3 2573.25,2338.38C2575.54,2335.47 2577.62,2332.35 2579.5,2329.04C2581.38,2325.72 2582.97,2322.34 2584.26,2318.89L2584.26,2227.03ZM2571.72,2039.71L2546.65,2076.7L2544.42,2061.19L2568.82,2018.83L2571.72,2039.71Z" style="fill:white;fill-rule:nonzero;"/>
                    <path d="M2680.13,2375.17L2669.48,2375.17L2630.38,2101.95L2638.36,2101.95L2675,2358.07L2711.65,2101.95L2719.57,2101.95L2680.13,2375.17Z" style="fill:white;fill-rule:nonzero;"/>
                    <path d="M2830.09,2375.17L2830.09,2344.94C2827.36,2350.11 2824.25,2354.89 2820.77,2359.26C2817.3,2363.64 2813.63,2367.41 2809.77,2370.6C2805.92,2373.78 2801.96,2376.23 2797.89,2377.95C2793.83,2379.68 2789.84,2380.54 2785.92,2380.54C2780.83,2380.54 2776.26,2378.95 2772.22,2375.76C2768.17,2372.58 2764.74,2367.85 2761.93,2361.55C2759.12,2355.25 2756.95,2347.43 2755.43,2338.08C2753.91,2328.74 2753.15,2317.9 2753.15,2305.57C2753.15,2293.38 2754.03,2282.61 2755.8,2273.26C2757.57,2263.91 2760.08,2255.76 2763.35,2248.8C2766.62,2241.84 2770.56,2235.94 2775.18,2231.1C2779.8,2226.26 2784.95,2222.16 2790.65,2218.78C2796.35,2215.39 2802.52,2212.61 2809.15,2210.42C2815.78,2208.24 2822.76,2206.41 2830.09,2204.95L2830.09,2184.08C2830.09,2175.59 2829.64,2168.1 2828.72,2161.61C2827.81,2155.11 2826.54,2149.44 2824.91,2144.61C2823.27,2139.77 2821.35,2135.72 2819.15,2132.47C2816.95,2129.23 2814.56,2126.61 2812,2124.62C2809.43,2122.63 2806.74,2121.21 2803.9,2120.35C2801.07,2119.48 2798.23,2119.05 2795.38,2119.05C2791.55,2119.05 2788.05,2119.72 2784.9,2121.04C2781.74,2122.37 2778.8,2124.19 2776.06,2126.51C2773.33,2128.83 2770.7,2131.51 2768.2,2134.56C2765.69,2137.61 2763.16,2140.86 2760.62,2144.31L2760.62,2115.28C2765.9,2110.37 2771.53,2106.1 2777.51,2102.45C2783.5,2098.8 2789.86,2096.98 2796.58,2096.98C2802.28,2096.98 2807.6,2098.67 2812.54,2102.05C2817.48,2105.43 2821.77,2110.83 2825.42,2118.26C2829.07,2125.68 2831.94,2135.26 2834.03,2146.99C2836.12,2158.72 2837.16,2173.01 2837.16,2189.84L2837.16,2375.17L2830.09,2375.17ZM2830.09,2227.03C2817.66,2229.41 2807.04,2232.79 2798.24,2237.17C2789.43,2241.54 2782.24,2246.91 2776.64,2253.28C2771.05,2259.64 2766.96,2267.06 2764.35,2275.55C2761.75,2284.03 2760.45,2293.64 2760.45,2304.38C2760.45,2313.13 2761.08,2320.88 2762.36,2327.64C2763.63,2334.41 2765.47,2340.07 2767.86,2344.65C2770.26,2349.22 2773.17,2352.67 2776.59,2354.99C2780.01,2357.31 2783.85,2358.47 2788.11,2358.47C2790.62,2358.47 2793.22,2357.97 2795.9,2356.97C2798.58,2355.98 2801.25,2354.59 2803.91,2352.8C2806.57,2351.01 2809.2,2348.89 2811.78,2346.43C2814.37,2343.98 2816.8,2341.3 2819.08,2338.38C2821.37,2335.47 2823.45,2332.35 2825.33,2329.04C2827.21,2325.72 2828.8,2322.34 2830.09,2318.89L2830.09,2227.03Z" style="fill:white;fill-rule:nonzero;"/>
                    <path d="M2893.34,2280.72C2893.34,2293.05 2893.62,2303.65 2894.19,2312.53C2894.76,2321.41 2895.96,2328.7 2897.78,2334.41C2899.6,2340.11 2902.24,2344.31 2905.67,2347.03C2909.11,2349.75 2913.68,2351.11 2919.38,2351.11L2954.78,2351.11L2954.78,2375.17L2917.96,2375.17C2911.69,2375.17 2906.51,2373.41 2902.43,2369.9C2898.34,2366.39 2895.09,2360.95 2892.68,2353.59C2890.27,2346.24 2888.59,2336.92 2887.64,2325.66C2886.68,2314.39 2886.21,2301 2886.21,2285.49L2886.21,2101.95L2893.34,2101.95L2893.34,2280.72Z" style="fill:white;fill-rule:nonzero;"/>
                </g>
            </g>
        </g>
    </g>
</svg>
