<?xml version="1.0" encoding="UTF-8" standalone="no"?>
<!DOCTYPE svg PUBLIC "-//W3C//DTD SVG 1.1//EN" "http://www.w3.org/Graphics/SVG/1.1/DTD/svg11.dtd">
<svg width="100%" height="100%" viewBox="0 0 732 189" version="1.1" xmlns="http://www.w3.org/2000/svg" xmlns:xlink="http://www.w3.org/1999/xlink" xml:space="preserve" xmlns:serif="http://www.serif.com/" style="fill-rule:evenodd;clip-rule:evenodd;stroke-linejoin:round;stroke-miterlimit:2;">
    <g transform="matrix(1,0,0,1,-153.795,-689.217)">
        <g transform="matrix(1.02842,0,0,4.11239,3.99931,-4531.79)">
            <g transform="matrix(0.877059,0,0,0.0612436,-1730.66,1153.82)">
                <path d="M2183.47,2107.97L2183.47,2375.17L2166.3,2375.17L2166.3,2107.97L2139.32,2107.97L2139.32,2033.65L2210.49,2033.65L2210.49,2107.97L2183.47,2107.97Z" style="fill:white;fill-rule:nonzero;"/>
                <path d="M2303.16,2204.66C2303.16,2233.99 2302.16,2259.88 2300.16,2282.33C2298.15,2304.78 2295.28,2323.55 2291.55,2338.63C2287.82,2353.71 2283.29,2365.1 2277.97,2372.81C2272.65,2380.51 2266.67,2384.37 2260.04,2384.37C2253.41,2384.37 2247.42,2380.51 2242.07,2372.81C2236.71,2365.1 2232.16,2353.71 2228.39,2338.63C2224.63,2323.55 2221.73,2304.78 2219.7,2282.33C2217.66,2259.88 2216.64,2233.99 2216.64,2204.66C2216.64,2175.33 2217.66,2149.43 2219.7,2126.98C2221.73,2104.53 2224.63,2085.76 2228.39,2070.68C2232.16,2055.6 2236.71,2044.21 2242.07,2036.51C2247.42,2028.8 2253.41,2024.95 2260.04,2024.95C2266.67,2024.95 2272.65,2028.8 2277.97,2036.51C2283.29,2044.21 2287.82,2055.6 2291.55,2070.68C2295.28,2085.76 2298.15,2104.53 2300.16,2126.98C2302.16,2149.43 2303.16,2175.33 2303.16,2204.66ZM2285.81,2204.66C2285.81,2191.9 2285.44,2179.18 2284.68,2166.5C2283.92,2153.83 2282.58,2142.43 2280.66,2132.33C2278.73,2122.22 2276.1,2114.02 2272.77,2107.72C2269.43,2101.42 2265.19,2098.27 2260.04,2098.27C2256.59,2098.27 2253.55,2099.72 2250.93,2102.62C2248.3,2105.52 2246.04,2109.54 2244.12,2114.68C2242.21,2119.82 2240.61,2125.82 2239.31,2132.7C2238.02,2139.58 2236.98,2146.95 2236.21,2154.82C2235.44,2162.69 2234.89,2170.89 2234.57,2179.43C2234.25,2187.96 2234.09,2196.37 2234.09,2204.66C2234.09,2213.11 2234.25,2221.64 2234.57,2230.26C2234.89,2238.88 2235.44,2247.12 2236.21,2254.99C2236.98,2262.86 2238.02,2270.19 2239.31,2276.99C2240.61,2283.78 2242.21,2289.71 2244.12,2294.76C2246.04,2299.81 2248.3,2303.79 2250.93,2306.69C2253.55,2309.59 2256.59,2311.04 2260.04,2311.04C2265.19,2311.04 2269.43,2307.89 2272.77,2301.6C2276.1,2295.3 2278.73,2287.1 2280.66,2276.99C2282.58,2266.88 2283.92,2255.49 2284.68,2242.81C2285.44,2230.13 2285.81,2217.42 2285.81,2204.66ZM2242.14,1997.11L2242.14,1919.81L2256.53,1919.81L2256.53,1997.11L2242.14,1997.11ZM2263.51,1997.11L2263.51,1919.81L2277.95,1919.81L2277.95,1997.11L2263.51,1997.11Z" style="fill:white;fill-rule:nonzero;"/>
                <path d="M2377.29,2110.95C2376.83,2110.12 2376.16,2109 2375.28,2107.6C2374.4,2106.19 2373.37,2104.78 2372.2,2103.37C2371.03,2101.96 2369.74,2100.76 2368.34,2099.76C2366.93,2098.77 2365.49,2098.27 2364.01,2098.27C2360.92,2098.27 2358.05,2100.3 2355.38,2104.36C2352.71,2108.42 2350.22,2113.81 2347.91,2120.52C2345.59,2127.23 2343.44,2134.85 2341.45,2143.39C2339.46,2151.92 2337.64,2160.66 2335.97,2169.61L2335.97,2375.17L2318.8,2375.17L2318.8,2033.65L2335.97,2033.65L2335.97,2089.08C2338.04,2080.79 2340.16,2072.8 2342.33,2065.09C2344.51,2057.39 2346.77,2050.55 2349.13,2044.59C2351.49,2038.62 2353.98,2033.86 2356.61,2030.29C2359.23,2026.73 2362,2024.95 2364.93,2024.95C2366.05,2024.95 2367.18,2025.24 2368.34,2025.82C2369.49,2026.4 2370.62,2027.1 2371.71,2027.93C2372.81,2028.76 2373.83,2029.67 2374.79,2030.66C2375.75,2031.66 2376.58,2032.65 2377.29,2033.65L2377.29,2110.95Z" style="fill:white;fill-rule:nonzero;"/>
                <path d="M2470.43,2204.66C2470.43,2233.99 2469.43,2259.88 2467.42,2282.33C2465.42,2304.78 2462.55,2323.55 2458.82,2338.63C2455.08,2353.71 2450.56,2365.1 2445.24,2372.81C2439.91,2380.51 2433.94,2384.37 2427.3,2384.37C2420.67,2384.37 2414.68,2380.51 2409.33,2372.81C2403.98,2365.1 2399.42,2353.71 2395.66,2338.63C2391.89,2323.55 2388.99,2304.78 2386.96,2282.33C2384.92,2259.88 2383.91,2233.99 2383.91,2204.66C2383.91,2175.33 2384.92,2149.43 2386.96,2126.98C2388.99,2104.53 2391.89,2085.76 2395.66,2070.68C2399.42,2055.6 2403.98,2044.21 2409.33,2036.51C2414.68,2028.8 2420.67,2024.95 2427.3,2024.95C2433.94,2024.95 2439.91,2028.8 2445.24,2036.51C2450.56,2044.21 2455.08,2055.6 2458.82,2070.68C2462.55,2085.76 2465.42,2104.53 2467.42,2126.98C2469.43,2149.43 2470.43,2175.33 2470.43,2204.66ZM2453.08,2204.66C2453.08,2191.9 2452.7,2179.18 2451.94,2166.5C2451.19,2153.83 2449.85,2142.43 2447.92,2132.33C2445.99,2122.22 2443.36,2114.02 2440.03,2107.72C2436.7,2101.42 2432.46,2098.27 2427.3,2098.27C2423.85,2098.27 2420.81,2099.72 2418.19,2102.62C2415.57,2105.52 2413.3,2109.54 2411.39,2114.68C2409.48,2119.82 2407.87,2125.82 2406.58,2132.7C2405.28,2139.58 2404.25,2146.95 2403.48,2154.82C2402.71,2162.69 2402.16,2170.89 2401.83,2179.43C2401.51,2187.96 2401.35,2196.37 2401.35,2204.66C2401.35,2213.11 2401.51,2221.64 2401.83,2230.26C2402.16,2238.88 2402.71,2247.12 2403.48,2254.99C2404.25,2262.86 2405.28,2270.19 2406.58,2276.99C2407.87,2283.78 2409.48,2289.71 2411.39,2294.76C2413.3,2299.81 2415.57,2303.79 2418.19,2306.69C2420.81,2309.59 2423.85,2311.04 2427.3,2311.04C2432.46,2311.04 2436.7,2307.89 2440.03,2301.6C2443.36,2295.3 2445.99,2287.1 2447.92,2276.99C2449.85,2266.88 2451.19,2255.49 2451.94,2242.81C2452.7,2230.13 2453.08,2217.42 2453.08,2204.66ZM2409.4,1997.11L2409.4,1919.81L2423.79,1919.81L2423.79,1997.11L2409.4,1997.11ZM2430.78,1997.11L2430.78,1919.81L2445.21,1919.81L2445.21,1997.11L2430.78,1997.11Z" style="fill:white;fill-rule:nonzero;"/>
                <path d="M2546.45,2375.17C2546.14,2356.61 2545.31,2340.33 2543.95,2326.33C2542.59,2312.33 2540.89,2300.27 2538.84,2290.16C2536.79,2280.05 2534.47,2271.68 2531.9,2265.06C2529.32,2258.43 2526.68,2253.17 2523.96,2249.27C2521.25,2245.38 2518.54,2242.64 2515.84,2241.07C2513.14,2239.5 2510.64,2238.71 2508.32,2238.71L2503.23,2238.71L2503.23,2375.17L2486.07,2375.17L2486.07,2033.65L2503.23,2033.65L2503.23,2165.39L2506.75,2165.39C2509.12,2165.39 2511.61,2164.39 2514.2,2162.4C2516.79,2160.41 2519.36,2157.26 2521.9,2152.96C2524.45,2148.65 2526.89,2143.1 2529.24,2136.3C2531.58,2129.51 2533.68,2121.22 2535.53,2111.45C2537.38,2101.67 2538.92,2090.36 2540.16,2077.52C2541.39,2064.68 2542.16,2050.05 2542.47,2033.65L2559.96,2033.65C2559.65,2051.71 2558.98,2068.03 2557.95,2082.61C2556.91,2097.2 2555.63,2110.25 2554.11,2121.76C2552.58,2133.28 2550.88,2143.35 2548.99,2151.96C2547.11,2160.58 2545.18,2167.99 2543.21,2174.21C2541.24,2180.42 2539.27,2185.56 2537.31,2189.62C2535.35,2193.68 2533.52,2196.79 2531.83,2198.94C2533.99,2200.76 2536.23,2203.62 2538.56,2207.52C2540.89,2211.41 2543.2,2216.55 2545.48,2222.93C2547.76,2229.31 2549.94,2237.14 2552.02,2246.41C2554.11,2255.7 2555.98,2266.55 2557.65,2278.98C2559.31,2291.4 2560.7,2305.57 2561.81,2321.48C2562.92,2337.39 2563.63,2355.28 2563.94,2375.17L2546.45,2375.17Z" style="fill:white;fill-rule:nonzero;"/>
                <path d="M2696.55,2204.66C2696.55,2233.99 2695.54,2259.88 2693.54,2282.33C2691.53,2304.78 2688.67,2323.55 2684.93,2338.63C2681.2,2353.71 2676.67,2365.1 2671.35,2372.81C2666.03,2380.51 2660.06,2384.37 2653.42,2384.37C2646.79,2384.37 2640.8,2380.51 2635.45,2372.81C2630.1,2365.1 2625.54,2353.71 2621.78,2338.63C2618.01,2323.55 2615.11,2304.78 2613.08,2282.33C2611.04,2259.88 2610.02,2233.99 2610.02,2204.66C2610.02,2175.33 2611.04,2149.43 2613.08,2126.98C2615.11,2104.53 2618.01,2085.76 2621.78,2070.68C2625.54,2055.6 2630.1,2044.21 2635.45,2036.51C2640.8,2028.8 2646.79,2024.95 2653.42,2024.95C2660.06,2024.95 2666.03,2028.8 2671.35,2036.51C2676.67,2044.21 2681.2,2055.6 2684.93,2070.68C2688.67,2085.76 2691.53,2104.53 2693.54,2126.98C2695.54,2149.43 2696.55,2175.33 2696.55,2204.66ZM2679.2,2204.66C2679.2,2191.9 2678.82,2179.18 2678.06,2166.5C2677.31,2153.83 2675.97,2142.43 2674.04,2132.33C2672.11,2122.22 2669.48,2114.02 2666.15,2107.72C2662.82,2101.42 2658.58,2098.27 2653.42,2098.27C2649.97,2098.27 2646.93,2099.72 2644.31,2102.62C2641.69,2105.52 2639.42,2109.54 2637.51,2114.68C2635.6,2119.82 2633.99,2125.82 2632.7,2132.7C2631.4,2139.58 2630.37,2146.95 2629.6,2154.82C2628.82,2162.69 2628.28,2170.89 2627.95,2179.43C2627.63,2187.96 2627.47,2196.37 2627.47,2204.66C2627.47,2213.11 2627.63,2221.64 2627.95,2230.26C2628.28,2238.88 2628.82,2247.12 2629.6,2254.99C2630.37,2262.86 2631.4,2270.19 2632.7,2276.99C2633.99,2283.78 2635.6,2289.71 2637.51,2294.76C2639.42,2299.81 2641.69,2303.79 2644.31,2306.69C2646.93,2309.59 2649.97,2311.04 2653.42,2311.04C2658.58,2311.04 2662.82,2307.89 2666.15,2301.6C2669.48,2295.3 2672.11,2287.1 2674.04,2276.99C2675.97,2266.88 2677.31,2255.49 2678.06,2242.81C2678.82,2230.13 2679.2,2217.42 2679.2,2204.66ZM2671.98,1955.85L2647.83,2002.08L2643.66,1959.83L2665.92,1890.23L2671.98,1955.85Z" style="fill:white;fill-rule:nonzero;"/>
                <path d="M2770.67,2110.95C2770.21,2110.12 2769.54,2109 2768.66,2107.6C2767.78,2106.19 2766.75,2104.78 2765.58,2103.37C2764.41,2101.96 2763.12,2100.76 2761.72,2099.76C2760.31,2098.77 2758.87,2098.27 2757.39,2098.27C2754.31,2098.27 2751.43,2100.3 2748.76,2104.36C2746.09,2108.42 2743.6,2113.81 2741.29,2120.52C2738.98,2127.23 2736.82,2134.85 2734.84,2143.39C2732.85,2151.92 2731.02,2160.66 2729.35,2169.61L2729.35,2375.17L2712.19,2375.17L2712.19,2033.65L2729.35,2033.65L2729.35,2089.08C2731.42,2080.79 2733.54,2072.8 2735.71,2065.09C2737.89,2057.39 2740.16,2050.55 2742.51,2044.59C2744.88,2038.62 2747.37,2033.86 2749.99,2030.29C2752.61,2026.73 2755.39,2024.95 2758.32,2024.95C2759.43,2024.95 2760.56,2025.24 2761.72,2025.82C2762.87,2026.4 2764,2027.1 2765.1,2027.93C2766.19,2028.76 2767.22,2029.67 2768.17,2030.66C2769.13,2031.66 2769.96,2032.65 2770.67,2033.65L2770.67,2110.95Z" style="fill:white;fill-rule:nonzero;"/>
                <path d="M2835.45,2375.17L2835.45,2341.61C2833.26,2348.08 2830.91,2353.79 2828.39,2358.76C2825.88,2363.74 2823.26,2367.96 2820.55,2371.44C2817.83,2374.92 2815.03,2377.53 2812.15,2379.27C2809.27,2381.01 2806.36,2381.88 2803.43,2381.88C2800.01,2381.88 2796.7,2380.14 2793.5,2376.66C2790.31,2373.18 2787.48,2367.55 2785.01,2359.76C2782.55,2351.97 2780.56,2341.78 2779.07,2329.18C2777.57,2316.59 2776.82,2301.18 2776.82,2282.95C2776.82,2259.92 2778,2240.74 2780.34,2225.41C2782.68,2210.08 2786.26,2197.53 2791.08,2187.76C2795.89,2177.98 2801.97,2170.44 2809.33,2165.14C2816.68,2159.83 2825.39,2155.69 2835.45,2152.71L2835.45,2145.5C2835.45,2139.87 2835.17,2134.27 2834.62,2128.72C2834.06,2123.17 2833.05,2118.28 2831.58,2114.06C2830.12,2109.83 2828.11,2106.39 2825.57,2103.74C2823.02,2101.09 2819.78,2099.76 2815.83,2099.76C2812.71,2099.76 2809.64,2100.64 2806.6,2102.38C2803.56,2104.12 2800.63,2106.48 2797.81,2109.46C2794.99,2112.44 2792.31,2115.92 2789.78,2119.9C2787.25,2123.88 2784.95,2128.02 2782.89,2132.33L2782.89,2050.3C2785.05,2047.32 2787.47,2044.42 2790.15,2041.6C2792.83,2038.79 2795.62,2036.34 2798.52,2034.27C2801.42,2032.2 2804.35,2030.54 2807.32,2029.3C2810.28,2028.06 2813.12,2027.43 2815.83,2027.43C2821.17,2027.43 2826.09,2029.8 2830.59,2034.52C2835.09,2039.24 2838.97,2046.57 2842.23,2056.52C2845.48,2066.46 2848.03,2079.05 2849.86,2094.3C2851.7,2109.54 2852.61,2127.69 2852.61,2148.73L2852.61,2375.17L2835.45,2375.17ZM2835.45,2219.32C2828.85,2220.65 2823.24,2222.55 2818.63,2225.04C2814.02,2227.53 2810.18,2230.42 2807.13,2233.74C2804.08,2237.05 2801.68,2240.62 2799.94,2244.43C2798.19,2248.24 2796.89,2252.13 2796.03,2256.11C2795.16,2260.09 2794.63,2264.06 2794.43,2268.04C2794.23,2272.02 2794.13,2275.66 2794.13,2278.98C2794.13,2282.95 2794.33,2286.81 2794.73,2290.53C2795.13,2294.26 2795.83,2297.53 2796.84,2300.35C2797.84,2303.17 2799.17,2305.41 2800.84,2307.06C2802.5,2308.72 2804.6,2309.55 2807.13,2309.55C2809.94,2309.55 2812.68,2308.39 2815.37,2306.07C2818.05,2303.75 2820.6,2300.56 2823,2296.5C2825.41,2292.44 2827.67,2287.64 2829.78,2282.08C2831.89,2276.53 2833.78,2270.61 2835.45,2264.31L2835.45,2219.32ZM2834.52,1955.85L2810.37,2002.08L2806.2,1959.83L2828.46,1890.23L2834.52,1955.85Z" style="fill:white;fill-rule:nonzero;"/>
                <path d="M2932.61,2375.17C2932.3,2356.61 2931.47,2340.33 2930.12,2326.33C2928.76,2312.33 2927.05,2300.27 2925,2290.16C2922.95,2280.05 2920.64,2271.68 2918.06,2265.06C2915.49,2258.43 2912.84,2253.17 2910.13,2249.27C2907.41,2245.38 2904.7,2242.64 2902.01,2241.07C2899.31,2239.5 2896.8,2238.71 2894.49,2238.71L2889.4,2238.71L2889.4,2375.17L2872.23,2375.17L2872.23,2033.65L2889.4,2033.65L2889.4,2165.39L2892.91,2165.39C2895.29,2165.39 2897.77,2164.39 2900.36,2162.4C2902.95,2160.41 2905.52,2157.26 2908.07,2152.96C2910.61,2148.65 2913.06,2143.1 2915.4,2136.3C2917.74,2129.51 2919.84,2121.22 2921.69,2111.45C2923.54,2101.67 2925.09,2090.36 2926.32,2077.52C2927.55,2064.68 2928.33,2050.05 2928.63,2033.65L2946.12,2033.65C2945.82,2051.71 2945.14,2068.03 2944.11,2082.61C2943.08,2097.2 2941.8,2110.25 2940.27,2121.76C2938.74,2133.28 2937.04,2143.35 2935.16,2151.96C2933.28,2160.58 2931.35,2167.99 2929.37,2174.21C2927.4,2180.42 2925.43,2185.56 2923.47,2189.62C2921.52,2193.68 2919.69,2196.79 2917.99,2198.94C2920.15,2200.76 2922.39,2203.62 2924.72,2207.52C2927.05,2211.41 2929.36,2216.55 2931.64,2222.93C2933.92,2229.31 2936.11,2237.14 2938.19,2246.41C2940.27,2255.7 2942.14,2266.55 2943.81,2278.98C2945.48,2291.4 2946.86,2305.57 2947.97,2321.48C2949.09,2337.39 2949.79,2355.28 2950.1,2375.17L2932.61,2375.17Z" style="fill:white;fill-rule:nonzero;"/>
            </g>
        </g>
        <g transform="matrix(1.02842,0,0,4.11239,3.99931,-4531.79)">
            <g transform="matrix(0.421107,0,0,0.0362215,-573.844,1229.1)">
                <path d="M2236.55,2238.36C2236.55,2255.86 2236.03,2271.4 2234.98,2284.99C2233.94,2298.58 2232.46,2310.41 2230.56,2320.49C2228.66,2330.56 2226.36,2339.11 2223.64,2346.14C2220.92,2353.16 2217.9,2358.8 2214.58,2363.04C2211.25,2367.28 2207.64,2370.36 2203.75,2372.29C2199.85,2374.21 2195.76,2375.17 2191.47,2375.17L2151.06,2375.17L2151.06,2101.95L2191.35,2101.95C2197.77,2101.95 2203.74,2104.14 2209.25,2108.51C2214.76,2112.89 2219.54,2120.35 2223.58,2130.89C2227.63,2141.42 2230.8,2155.44 2233.1,2172.94C2235.4,2190.44 2236.55,2212.25 2236.55,2238.36ZM2229.25,2238.46C2229.25,2223.6 2228.84,2210.47 2228,2199.05C2227.16,2187.64 2225.96,2177.73 2224.41,2169.3C2222.85,2160.88 2220.95,2153.81 2218.7,2148.11C2216.46,2142.4 2213.93,2137.79 2211.11,2134.27C2208.3,2130.76 2205.24,2128.27 2201.93,2126.81C2198.62,2125.35 2195.11,2124.62 2191.38,2124.62L2158.18,2124.62L2158.18,2352.5L2191.38,2352.5C2196.97,2352.5 2202.08,2350.74 2206.72,2347.23C2211.36,2343.71 2215.35,2337.61 2218.67,2328.92C2222,2320.23 2224.6,2308.55 2226.46,2293.89C2228.32,2279.23 2229.25,2260.75 2229.25,2238.46Z" style="fill:white;fill-rule:nonzero;"/>
                <path d="M2374.57,2238.76C2374.57,2263.28 2373.3,2284.46 2370.75,2302.29C2368.21,2320.12 2364.71,2334.84 2360.27,2346.43C2355.83,2358.03 2350.59,2366.62 2344.55,2372.19C2338.51,2377.75 2332,2380.54 2325.01,2380.54C2317.99,2380.54 2311.43,2377.75 2305.36,2372.19C2299.28,2366.62 2294,2358.03 2289.52,2346.43C2285.04,2334.84 2281.53,2320.12 2278.99,2302.29C2276.44,2284.46 2275.17,2263.28 2275.17,2238.76C2275.17,2222.45 2275.76,2207.64 2276.93,2194.32C2278.11,2180.99 2279.76,2169.06 2281.89,2158.52C2284.02,2147.99 2286.59,2138.87 2289.61,2131.18C2292.63,2123.49 2295.99,2117.1 2299.69,2111.99C2303.39,2106.89 2307.37,2103.11 2311.62,2100.66C2315.88,2098.21 2320.34,2096.98 2325.01,2096.98C2332,2096.98 2338.51,2099.76 2344.55,2105.33C2350.59,2110.9 2355.83,2119.48 2360.27,2131.08C2364.71,2142.68 2368.21,2157.4 2370.75,2175.23C2373.3,2193.06 2374.57,2214.24 2374.57,2238.76ZM2367.27,2238.76C2367.27,2219.41 2366.37,2202.3 2364.56,2187.46C2362.76,2172.61 2360.09,2160.12 2356.55,2149.97C2353.01,2139.83 2348.61,2132.14 2343.35,2126.91C2338.08,2121.67 2331.97,2119.05 2325.01,2119.05C2318.05,2119.05 2311.92,2121.7 2306.62,2127.01C2301.31,2132.31 2296.87,2140.03 2293.3,2150.17C2289.73,2160.31 2287.03,2172.84 2285.2,2187.76C2283.38,2202.67 2282.46,2219.67 2282.46,2238.76C2282.46,2258.11 2283.38,2275.22 2285.2,2290.06C2287.03,2304.91 2289.73,2317.4 2293.3,2327.55C2296.87,2337.69 2301.31,2345.38 2306.62,2350.61C2311.92,2355.85 2318.05,2358.47 2325.01,2358.47C2331.97,2358.47 2338.08,2355.85 2343.35,2350.61C2348.61,2345.38 2353.01,2337.69 2356.55,2327.55C2360.09,2317.4 2362.76,2304.91 2364.56,2290.06C2366.37,2275.22 2367.27,2258.11 2367.27,2238.76ZM2345.22,2039.71L2320.14,2076.7L2317.91,2061.19L2342.31,2018.83L2345.22,2039.71Z" style="fill:white;fill-rule:nonzero;"/>
                <path d="M2476.85,2123.03C2475.75,2121.84 2474.22,2120.55 2472.26,2119.15C2470.3,2117.76 2467.79,2117.07 2464.71,2117.07C2460.45,2117.07 2456.46,2118.89 2452.71,2122.53C2448.97,2126.18 2445.49,2131.12 2442.28,2137.35C2439.07,2143.58 2436.1,2150.84 2433.36,2159.12C2430.63,2167.41 2428.16,2176.19 2425.95,2185.47L2425.95,2375.17L2418.83,2375.17L2418.83,2101.95L2425.95,2101.95L2425.95,2157.63C2428.5,2148.48 2431.26,2140.07 2434.25,2132.38C2437.23,2124.69 2440.37,2118.09 2443.68,2112.59C2446.99,2107.09 2450.45,2102.78 2454.08,2099.67C2457.71,2096.55 2461.46,2094.99 2465.34,2094.99C2466.67,2094.99 2467.86,2095.09 2468.93,2095.29C2469.99,2095.49 2470.97,2095.76 2471.86,2096.09C2472.76,2096.42 2473.6,2096.78 2474.4,2097.18C2475.2,2097.58 2476.01,2098.04 2476.85,2098.57L2476.85,2123.03Z" style="fill:white;fill-rule:nonzero;"/>
                <path d="M2584.26,2375.17L2584.26,2344.94C2581.53,2350.11 2578.42,2354.89 2574.94,2359.26C2571.47,2363.64 2567.8,2367.41 2563.94,2370.6C2560.09,2373.78 2556.13,2376.23 2552.06,2377.95C2547.99,2379.68 2544.01,2380.54 2540.09,2380.54C2535,2380.54 2530.43,2378.95 2526.39,2375.76C2522.34,2372.58 2518.91,2367.85 2516.1,2361.55C2513.28,2355.25 2511.12,2347.43 2509.6,2338.08C2508.08,2328.74 2507.32,2317.9 2507.32,2305.57C2507.32,2293.38 2508.2,2282.61 2509.97,2273.26C2511.74,2263.91 2514.25,2255.76 2517.52,2248.8C2520.79,2241.84 2524.73,2235.94 2529.35,2231.1C2533.97,2226.26 2539.12,2222.16 2544.82,2218.78C2550.52,2215.39 2556.69,2212.61 2563.32,2210.42C2569.95,2208.24 2576.93,2206.41 2584.26,2204.95L2584.26,2184.08C2584.26,2175.59 2583.81,2168.1 2582.89,2161.61C2581.98,2155.11 2580.71,2149.44 2579.08,2144.61C2577.44,2139.77 2575.52,2135.72 2573.32,2132.47C2571.12,2129.23 2568.73,2126.61 2566.17,2124.62C2563.6,2122.63 2560.9,2121.21 2558.07,2120.35C2555.24,2119.48 2552.4,2119.05 2549.55,2119.05C2545.72,2119.05 2542.22,2119.72 2539.07,2121.04C2535.91,2122.37 2532.97,2124.19 2530.23,2126.51C2527.5,2128.83 2524.87,2131.51 2522.37,2134.56C2519.86,2137.61 2517.33,2140.86 2514.79,2144.31L2514.79,2115.28C2520.07,2110.37 2525.7,2106.1 2531.68,2102.45C2537.67,2098.8 2544.02,2096.98 2550.75,2096.98C2556.45,2096.98 2561.77,2098.67 2566.71,2102.05C2571.65,2105.43 2575.94,2110.83 2579.59,2118.26C2583.24,2125.68 2586.11,2135.26 2588.2,2146.99C2590.28,2158.72 2591.33,2173.01 2591.33,2189.84L2591.33,2375.17L2584.26,2375.17ZM2584.26,2227.03C2571.83,2229.41 2561.21,2232.79 2552.41,2237.17C2543.6,2241.54 2536.41,2246.91 2530.82,2253.28C2525.22,2259.64 2521.13,2267.06 2518.52,2275.55C2515.92,2284.03 2514.62,2293.64 2514.62,2304.38C2514.62,2313.13 2515.25,2320.88 2516.53,2327.64C2517.8,2334.41 2519.64,2340.07 2522.03,2344.65C2524.43,2349.22 2527.34,2352.67 2530.76,2354.99C2534.18,2357.31 2538.02,2358.47 2542.28,2358.47C2544.79,2358.47 2547.39,2357.97 2550.07,2356.97C2552.75,2355.98 2555.42,2354.59 2558.08,2352.8C2560.74,2351.01 2563.37,2348.89 2565.95,2346.43C2568.54,2343.98 2570.97,2341.3 2573.25,2338.38C2575.54,2335.47 2577.62,2332.35 2579.5,2329.04C2581.38,2325.72 2582.97,2322.34 2584.26,2318.89L2584.26,2227.03ZM2571.72,2039.71L2546.65,2076.7L2544.42,2061.19L2568.82,2018.83L2571.72,2039.71Z" style="fill:white;fill-rule:nonzero;"/>
                <path d="M2680.13,2375.17L2669.48,2375.17L2630.38,2101.95L2638.36,2101.95L2675,2358.07L2711.65,2101.95L2719.57,2101.95L2680.13,2375.17Z" style="fill:white;fill-rule:nonzero;"/>
                <path d="M2830.09,2375.17L2830.09,2344.94C2827.36,2350.11 2824.25,2354.89 2820.77,2359.26C2817.3,2363.64 2813.63,2367.41 2809.77,2370.6C2805.92,2373.78 2801.96,2376.23 2797.89,2377.95C2793.83,2379.68 2789.84,2380.54 2785.92,2380.54C2780.83,2380.54 2776.26,2378.95 2772.22,2375.76C2768.17,2372.58 2764.74,2367.85 2761.93,2361.55C2759.12,2355.25 2756.95,2347.43 2755.43,2338.08C2753.91,2328.74 2753.15,2317.9 2753.15,2305.57C2753.15,2293.38 2754.03,2282.61 2755.8,2273.26C2757.57,2263.91 2760.08,2255.76 2763.35,2248.8C2766.62,2241.84 2770.56,2235.94 2775.18,2231.1C2779.8,2226.26 2784.95,2222.16 2790.65,2218.78C2796.35,2215.39 2802.52,2212.61 2809.15,2210.42C2815.78,2208.24 2822.76,2206.41 2830.09,2204.95L2830.09,2184.08C2830.09,2175.59 2829.64,2168.1 2828.72,2161.61C2827.81,2155.11 2826.54,2149.44 2824.91,2144.61C2823.27,2139.77 2821.35,2135.72 2819.15,2132.47C2816.95,2129.23 2814.56,2126.61 2812,2124.62C2809.43,2122.63 2806.74,2121.21 2803.9,2120.35C2801.07,2119.48 2798.23,2119.05 2795.38,2119.05C2791.55,2119.05 2788.05,2119.72 2784.9,2121.04C2781.74,2122.37 2778.8,2124.19 2776.06,2126.51C2773.33,2128.83 2770.7,2131.51 2768.2,2134.56C2765.69,2137.61 2763.16,2140.86 2760.62,2144.31L2760.62,2115.28C2765.9,2110.37 2771.53,2106.1 2777.51,2102.45C2783.5,2098.8 2789.86,2096.98 2796.58,2096.98C2802.28,2096.98 2807.6,2098.67 2812.54,2102.05C2817.48,2105.43 2821.77,2110.83 2825.42,2118.26C2829.07,2125.68 2831.94,2135.26 2834.03,2146.99C2836.12,2158.72 2837.16,2173.01 2837.16,2189.84L2837.16,2375.17L2830.09,2375.17ZM2830.09,2227.03C2817.66,2229.41 2807.04,2232.79 2798.24,2237.17C2789.43,2241.54 2782.24,2246.91 2776.64,2253.28C2771.05,2259.64 2766.96,2267.06 2764.35,2275.55C2761.75,2284.03 2760.45,2293.64 2760.45,2304.38C2760.45,2313.13 2761.08,2320.88 2762.36,2327.64C2763.63,2334.41 2765.47,2340.07 2767.86,2344.65C2770.26,2349.22 2773.17,2352.67 2776.59,2354.99C2780.01,2357.31 2783.85,2358.47 2788.11,2358.47C2790.62,2358.47 2793.22,2357.97 2795.9,2356.97C2798.58,2355.98 2801.25,2354.59 2803.91,2352.8C2806.57,2351.01 2809.2,2348.89 2811.78,2346.43C2814.37,2343.98 2816.8,2341.3 2819.08,2338.38C2821.37,2335.47 2823.45,2332.35 2825.33,2329.04C2827.21,2325.72 2828.8,2322.34 2830.09,2318.89L2830.09,2227.03Z" style="fill:white;fill-rule:nonzero;"/>
                <path d="M2893.34,2280.72C2893.34,2293.05 2893.62,2303.65 2894.19,2312.53C2894.76,2321.41 2895.96,2328.7 2897.78,2334.41C2899.6,2340.11 2902.24,2344.31 2905.67,2347.03C2909.11,2349.75 2913.68,2351.11 2919.38,2351.11L2954.78,2351.11L2954.78,2375.17L2917.96,2375.17C2911.69,2375.17 2906.51,2373.41 2902.43,2369.9C2898.34,2366.39 2895.09,2360.95 2892.68,2353.59C2890.27,2346.24 2888.59,2336.92 2887.64,2325.66C2886.68,2314.39 2886.21,2301 2886.21,2285.49L2886.21,2101.95L2893.34,2101.95L2893.34,2280.72Z" style="fill:white;fill-rule:nonzero;"/>
            </g>
        </g>
    </g>
</svg>
