<?xml version="1.0" encoding="UTF-8" standalone="no"?>
<!DOCTYPE svg PUBLIC "-//W3C//DTD SVG 1.1//EN" "http://www.w3.org/Graphics/SVG/1.1/DTD/svg11.dtd">
<svg width="100%" height="100%" viewBox="0 0 3050 843" version="1.1" xmlns="http://www.w3.org/2000/svg" xmlns:xlink="http://www.w3.org/1999/xlink" xml:space="preserve" xmlns:serif="http://www.serif.com/" style="fill-rule:evenodd;clip-rule:evenodd;stroke-linejoin:round;stroke-miterlimit:2;">
    <g transform="matrix(4.16667,0,0,4.16667,-1345.19,-1421.51)">
        <g transform="matrix(1.02842,0,0,4.11239,3.99931,-4879.79)">
            <g transform="matrix(0.415909,0,0,0.156015,-580.392,943.319)">
                <g transform="matrix(200,0,0,200,2137.89,2281.67)">
                    <path d="M0.481,-0.525L0.481,-0L0.3,-0L0.3,-0.525L0.015,-0.525L0.015,-0.671L0.766,-0.671L0.766,-0.525L0.481,-0.525Z" style="fill:rgb(239,236,238);fill-rule:nonzero;"/>
                </g>
                <g transform="matrix(200,0,0,200,2292.09,2281.67)">
                    <path d="M0.973,-0.335C0.973,-0.277 0.963,-0.226 0.941,-0.182C0.92,-0.138 0.89,-0.101 0.851,-0.072C0.811,-0.042 0.763,-0.02 0.707,-0.005C0.651,0.01 0.588,0.018 0.518,0.018C0.448,0.018 0.385,0.01 0.328,-0.005C0.272,-0.02 0.224,-0.042 0.184,-0.072C0.144,-0.101 0.114,-0.138 0.092,-0.182C0.071,-0.226 0.06,-0.277 0.06,-0.335C0.06,-0.393 0.071,-0.443 0.092,-0.488C0.114,-0.532 0.144,-0.569 0.184,-0.598C0.224,-0.628 0.272,-0.65 0.328,-0.665C0.385,-0.68 0.448,-0.688 0.518,-0.688C0.588,-0.688 0.651,-0.68 0.707,-0.665C0.763,-0.65 0.811,-0.628 0.851,-0.598C0.89,-0.569 0.92,-0.532 0.941,-0.488C0.963,-0.443 0.973,-0.393 0.973,-0.335ZM0.79,-0.335C0.79,-0.36 0.786,-0.385 0.778,-0.41C0.77,-0.435 0.756,-0.457 0.736,-0.477C0.715,-0.497 0.688,-0.513 0.652,-0.525C0.617,-0.538 0.572,-0.544 0.518,-0.544C0.482,-0.544 0.45,-0.541 0.422,-0.535C0.394,-0.53 0.37,-0.522 0.35,-0.512C0.33,-0.502 0.313,-0.49 0.299,-0.476C0.286,-0.463 0.275,-0.448 0.267,-0.433C0.258,-0.417 0.253,-0.401 0.249,-0.385C0.246,-0.368 0.244,-0.351 0.244,-0.335C0.244,-0.318 0.246,-0.302 0.249,-0.285C0.253,-0.268 0.258,-0.252 0.267,-0.236C0.275,-0.221 0.286,-0.206 0.299,-0.193C0.313,-0.18 0.33,-0.168 0.35,-0.158C0.37,-0.148 0.394,-0.14 0.422,-0.135C0.45,-0.129 0.482,-0.126 0.518,-0.126C0.572,-0.126 0.617,-0.132 0.652,-0.145C0.688,-0.157 0.715,-0.173 0.736,-0.193C0.756,-0.213 0.77,-0.235 0.778,-0.26C0.786,-0.285 0.79,-0.31 0.79,-0.335ZM0.329,-0.743L0.329,-0.895L0.481,-0.895L0.481,-0.743L0.329,-0.743ZM0.555,-0.743L0.555,-0.895L0.707,-0.895L0.707,-0.743L0.555,-0.743Z" style="fill:rgb(239,236,238);fill-rule:nonzero;"/>
                </g>
                <g transform="matrix(200,0,0,200,2498.73,2281.67)">
                    <path d="M0.722,-0.519C0.717,-0.521 0.71,-0.523 0.701,-0.526C0.692,-0.528 0.681,-0.531 0.668,-0.534C0.656,-0.537 0.642,-0.539 0.628,-0.541C0.613,-0.543 0.598,-0.544 0.582,-0.544C0.549,-0.544 0.519,-0.54 0.491,-0.532C0.463,-0.524 0.437,-0.513 0.412,-0.5C0.388,-0.487 0.365,-0.472 0.344,-0.455C0.323,-0.439 0.304,-0.421 0.286,-0.404L0.286,-0L0.105,-0L0.105,-0.671L0.286,-0.671L0.286,-0.562C0.308,-0.578 0.33,-0.594 0.353,-0.609C0.376,-0.624 0.4,-0.638 0.425,-0.649C0.45,-0.661 0.476,-0.67 0.504,-0.677C0.532,-0.684 0.561,-0.688 0.592,-0.688C0.604,-0.688 0.615,-0.687 0.628,-0.686C0.64,-0.685 0.652,-0.684 0.663,-0.682C0.675,-0.681 0.686,-0.679 0.696,-0.677C0.706,-0.675 0.715,-0.673 0.722,-0.671L0.722,-0.519Z" style="fill:rgb(239,236,238);fill-rule:nonzero;"/>
                </g>
                <g transform="matrix(200,0,0,200,2645.12,2281.67)">
                    <path d="M0.973,-0.335C0.973,-0.277 0.963,-0.226 0.941,-0.182C0.92,-0.138 0.89,-0.101 0.851,-0.072C0.811,-0.042 0.763,-0.02 0.707,-0.005C0.651,0.01 0.588,0.018 0.518,0.018C0.448,0.018 0.385,0.01 0.328,-0.005C0.272,-0.02 0.224,-0.042 0.184,-0.072C0.144,-0.101 0.114,-0.138 0.092,-0.182C0.071,-0.226 0.06,-0.277 0.06,-0.335C0.06,-0.393 0.071,-0.443 0.092,-0.488C0.114,-0.532 0.144,-0.569 0.184,-0.598C0.224,-0.628 0.272,-0.65 0.328,-0.665C0.385,-0.68 0.448,-0.688 0.518,-0.688C0.588,-0.688 0.651,-0.68 0.707,-0.665C0.763,-0.65 0.811,-0.628 0.851,-0.598C0.89,-0.569 0.92,-0.532 0.941,-0.488C0.963,-0.443 0.973,-0.393 0.973,-0.335ZM0.79,-0.335C0.79,-0.36 0.786,-0.385 0.778,-0.41C0.77,-0.435 0.756,-0.457 0.736,-0.477C0.715,-0.497 0.688,-0.513 0.652,-0.525C0.617,-0.538 0.572,-0.544 0.518,-0.544C0.482,-0.544 0.45,-0.541 0.422,-0.535C0.394,-0.53 0.37,-0.522 0.35,-0.512C0.33,-0.502 0.313,-0.49 0.299,-0.476C0.286,-0.463 0.275,-0.448 0.267,-0.433C0.258,-0.417 0.253,-0.401 0.249,-0.385C0.246,-0.368 0.244,-0.351 0.244,-0.335C0.244,-0.318 0.246,-0.302 0.249,-0.285C0.253,-0.268 0.258,-0.252 0.267,-0.236C0.275,-0.221 0.286,-0.206 0.299,-0.193C0.313,-0.18 0.33,-0.168 0.35,-0.158C0.37,-0.148 0.394,-0.14 0.422,-0.135C0.45,-0.129 0.482,-0.126 0.518,-0.126C0.572,-0.126 0.617,-0.132 0.652,-0.145C0.688,-0.157 0.715,-0.173 0.736,-0.193C0.756,-0.213 0.77,-0.235 0.778,-0.26C0.786,-0.285 0.79,-0.31 0.79,-0.335ZM0.329,-0.743L0.329,-0.895L0.481,-0.895L0.481,-0.743L0.329,-0.743ZM0.555,-0.743L0.555,-0.895L0.707,-0.895L0.707,-0.743L0.555,-0.743Z" style="fill:rgb(239,236,238);fill-rule:nonzero;"/>
                </g>
                <g transform="matrix(200,0,0,200,2851.76,2281.67)">
                    <path d="M0.742,-0C0.739,-0.036 0.73,-0.068 0.716,-0.096C0.701,-0.123 0.684,-0.147 0.662,-0.167C0.64,-0.187 0.616,-0.203 0.589,-0.216C0.561,-0.229 0.534,-0.24 0.505,-0.247C0.476,-0.255 0.448,-0.26 0.419,-0.263C0.391,-0.267 0.364,-0.268 0.34,-0.268L0.286,-0.268L0.286,-0L0.105,-0L0.105,-0.671L0.286,-0.671L0.286,-0.412L0.323,-0.412C0.348,-0.412 0.375,-0.414 0.402,-0.418C0.429,-0.422 0.456,-0.428 0.483,-0.437C0.51,-0.445 0.536,-0.456 0.561,-0.469C0.585,-0.483 0.607,-0.499 0.627,-0.518C0.646,-0.537 0.663,-0.559 0.676,-0.585C0.689,-0.61 0.697,-0.639 0.7,-0.671L0.885,-0.671C0.882,-0.635 0.874,-0.603 0.864,-0.575C0.853,-0.546 0.839,-0.52 0.823,-0.498C0.807,-0.475 0.789,-0.455 0.769,-0.438C0.749,-0.422 0.729,-0.407 0.708,-0.395C0.687,-0.383 0.666,-0.372 0.646,-0.365C0.625,-0.357 0.606,-0.35 0.588,-0.346C0.611,-0.343 0.634,-0.337 0.659,-0.329C0.684,-0.322 0.708,-0.312 0.732,-0.299C0.756,-0.287 0.779,-0.271 0.801,-0.253C0.823,-0.235 0.843,-0.213 0.86,-0.189C0.878,-0.165 0.893,-0.137 0.904,-0.105C0.916,-0.074 0.924,-0.039 0.927,-0L0.742,-0Z" style="fill:rgb(239,236,238);fill-rule:nonzero;"/>
                </g>
                <g transform="matrix(200,0,0,200,3122.36,2281.67)">
                    <path d="M0.973,-0.335C0.973,-0.277 0.963,-0.226 0.941,-0.182C0.92,-0.138 0.89,-0.101 0.851,-0.072C0.811,-0.042 0.763,-0.02 0.707,-0.005C0.651,0.01 0.588,0.018 0.518,0.018C0.448,0.018 0.385,0.01 0.328,-0.005C0.272,-0.02 0.224,-0.042 0.184,-0.072C0.144,-0.101 0.114,-0.138 0.092,-0.182C0.071,-0.226 0.06,-0.277 0.06,-0.335C0.06,-0.393 0.071,-0.443 0.092,-0.488C0.114,-0.532 0.144,-0.569 0.184,-0.598C0.224,-0.628 0.272,-0.65 0.328,-0.665C0.385,-0.68 0.448,-0.688 0.518,-0.688C0.588,-0.688 0.651,-0.68 0.707,-0.665C0.763,-0.65 0.811,-0.628 0.851,-0.598C0.89,-0.569 0.92,-0.532 0.941,-0.488C0.963,-0.443 0.973,-0.393 0.973,-0.335ZM0.79,-0.335C0.79,-0.36 0.786,-0.385 0.778,-0.41C0.77,-0.435 0.756,-0.457 0.736,-0.477C0.715,-0.497 0.688,-0.513 0.652,-0.525C0.617,-0.538 0.572,-0.544 0.518,-0.544C0.482,-0.544 0.45,-0.541 0.422,-0.535C0.394,-0.53 0.37,-0.522 0.35,-0.512C0.33,-0.502 0.313,-0.49 0.299,-0.476C0.286,-0.463 0.275,-0.448 0.267,-0.433C0.258,-0.417 0.253,-0.401 0.249,-0.385C0.246,-0.368 0.244,-0.351 0.244,-0.335C0.244,-0.318 0.246,-0.302 0.249,-0.285C0.253,-0.268 0.258,-0.252 0.267,-0.236C0.275,-0.221 0.286,-0.206 0.299,-0.193C0.313,-0.18 0.33,-0.168 0.35,-0.158C0.37,-0.148 0.394,-0.14 0.422,-0.135C0.45,-0.129 0.482,-0.126 0.518,-0.126C0.572,-0.126 0.617,-0.132 0.652,-0.145C0.688,-0.157 0.715,-0.173 0.736,-0.193C0.756,-0.213 0.77,-0.235 0.778,-0.26C0.786,-0.285 0.79,-0.31 0.79,-0.335ZM0.714,-0.824L0.459,-0.733L0.415,-0.816L0.65,-0.953L0.714,-0.824Z" style="fill:rgb(239,236,238);fill-rule:nonzero;"/>
                </g>
                <g transform="matrix(200,0,0,200,3329,2281.67)">
                    <path d="M0.722,-0.519C0.717,-0.521 0.71,-0.523 0.701,-0.526C0.692,-0.528 0.681,-0.531 0.668,-0.534C0.656,-0.537 0.642,-0.539 0.628,-0.541C0.613,-0.543 0.598,-0.544 0.582,-0.544C0.549,-0.544 0.519,-0.54 0.491,-0.532C0.463,-0.524 0.437,-0.513 0.412,-0.5C0.388,-0.487 0.365,-0.472 0.344,-0.455C0.323,-0.439 0.304,-0.421 0.286,-0.404L0.286,-0L0.105,-0L0.105,-0.671L0.286,-0.671L0.286,-0.562C0.308,-0.578 0.33,-0.594 0.353,-0.609C0.376,-0.624 0.4,-0.638 0.425,-0.649C0.45,-0.661 0.476,-0.67 0.504,-0.677C0.532,-0.684 0.561,-0.688 0.592,-0.688C0.604,-0.688 0.615,-0.687 0.628,-0.686C0.64,-0.685 0.652,-0.684 0.663,-0.682C0.675,-0.681 0.686,-0.679 0.696,-0.677C0.706,-0.675 0.715,-0.673 0.722,-0.671L0.722,-0.519Z" style="fill:rgb(239,236,238);fill-rule:nonzero;"/>
                </g>
                <g transform="matrix(200,0,0,200,3475.39,2281.67)">
                    <path d="M0.674,-0L0.674,-0.066C0.651,-0.053 0.626,-0.042 0.599,-0.032C0.573,-0.022 0.545,-0.014 0.517,-0.007C0.488,-0 0.458,0.005 0.428,0.008C0.398,0.011 0.367,0.013 0.336,0.013C0.3,0.013 0.265,0.01 0.231,0.003C0.198,-0.004 0.168,-0.015 0.142,-0.03C0.116,-0.046 0.095,-0.066 0.079,-0.09C0.063,-0.115 0.055,-0.145 0.055,-0.181C0.055,-0.226 0.068,-0.264 0.092,-0.294C0.117,-0.324 0.155,-0.349 0.206,-0.368C0.256,-0.387 0.321,-0.402 0.398,-0.413C0.476,-0.423 0.568,-0.431 0.674,-0.437L0.674,-0.451C0.674,-0.462 0.671,-0.473 0.665,-0.484C0.659,-0.495 0.649,-0.505 0.633,-0.513C0.618,-0.521 0.596,-0.528 0.57,-0.533C0.543,-0.538 0.508,-0.541 0.467,-0.541C0.434,-0.541 0.401,-0.539 0.369,-0.536C0.337,-0.532 0.306,-0.528 0.277,-0.522C0.247,-0.516 0.219,-0.509 0.192,-0.501C0.165,-0.494 0.141,-0.486 0.119,-0.477L0.119,-0.638C0.142,-0.644 0.167,-0.65 0.196,-0.655C0.224,-0.661 0.254,-0.666 0.284,-0.67C0.315,-0.674 0.346,-0.677 0.377,-0.679C0.408,-0.682 0.438,-0.683 0.467,-0.683C0.523,-0.683 0.575,-0.678 0.623,-0.669C0.67,-0.66 0.711,-0.646 0.745,-0.626C0.78,-0.606 0.807,-0.582 0.826,-0.552C0.845,-0.522 0.855,-0.486 0.855,-0.445L0.855,-0L0.674,-0ZM0.674,-0.306C0.604,-0.304 0.545,-0.3 0.496,-0.295C0.448,-0.29 0.407,-0.284 0.375,-0.278C0.343,-0.271 0.317,-0.264 0.299,-0.257C0.281,-0.249 0.267,-0.242 0.258,-0.234C0.249,-0.226 0.243,-0.218 0.241,-0.21C0.239,-0.203 0.238,-0.195 0.238,-0.189C0.238,-0.181 0.24,-0.174 0.244,-0.166C0.248,-0.159 0.256,-0.153 0.266,-0.147C0.277,-0.141 0.291,-0.137 0.309,-0.134C0.326,-0.131 0.348,-0.129 0.375,-0.129C0.405,-0.129 0.434,-0.131 0.462,-0.136C0.49,-0.14 0.517,-0.147 0.542,-0.155C0.568,-0.163 0.592,-0.172 0.614,-0.183C0.636,-0.194 0.656,-0.205 0.674,-0.218L0.674,-0.306ZM0.664,-0.824L0.409,-0.733L0.365,-0.816L0.6,-0.953L0.664,-0.824Z" style="fill:rgb(239,236,238);fill-rule:nonzero;"/>
                </g>
                <g transform="matrix(200,0,0,200,3666.8,2281.67)">
                    <path d="M0.742,-0C0.739,-0.036 0.73,-0.068 0.716,-0.096C0.701,-0.123 0.684,-0.147 0.662,-0.167C0.64,-0.187 0.616,-0.203 0.589,-0.216C0.561,-0.229 0.534,-0.24 0.505,-0.247C0.476,-0.255 0.448,-0.26 0.419,-0.263C0.391,-0.267 0.364,-0.268 0.34,-0.268L0.286,-0.268L0.286,-0L0.105,-0L0.105,-0.671L0.286,-0.671L0.286,-0.412L0.323,-0.412C0.348,-0.412 0.375,-0.414 0.402,-0.418C0.429,-0.422 0.456,-0.428 0.483,-0.437C0.51,-0.445 0.536,-0.456 0.561,-0.469C0.585,-0.483 0.607,-0.499 0.627,-0.518C0.646,-0.537 0.663,-0.559 0.676,-0.585C0.689,-0.61 0.697,-0.639 0.7,-0.671L0.885,-0.671C0.882,-0.635 0.874,-0.603 0.864,-0.575C0.853,-0.546 0.839,-0.52 0.823,-0.498C0.807,-0.475 0.789,-0.455 0.769,-0.438C0.749,-0.422 0.729,-0.407 0.708,-0.395C0.687,-0.383 0.666,-0.372 0.646,-0.365C0.625,-0.357 0.606,-0.35 0.588,-0.346C0.611,-0.343 0.634,-0.337 0.659,-0.329C0.684,-0.322 0.708,-0.312 0.732,-0.299C0.756,-0.287 0.779,-0.271 0.801,-0.253C0.823,-0.235 0.843,-0.213 0.86,-0.189C0.878,-0.165 0.893,-0.137 0.904,-0.105C0.916,-0.074 0.924,-0.039 0.927,-0L0.742,-0Z" style="fill:rgb(239,236,238);fill-rule:nonzero;"/>
                </g>
            </g>
        </g>
        <g transform="matrix(1.02842,0,0,4.11239,3.99931,-4879.79)">
            <g transform="matrix(0.245982,0,0,0.073818,-217.108,1150.14)">
                <g transform="matrix(200,0,0,200,2137.89,2281.67)">
                    <path d="M0.845,-0.336C0.845,-0.293 0.841,-0.255 0.832,-0.221C0.823,-0.188 0.81,-0.159 0.794,-0.134C0.778,-0.11 0.758,-0.089 0.735,-0.071C0.711,-0.054 0.685,-0.04 0.657,-0.03C0.628,-0.019 0.598,-0.012 0.564,-0.007C0.531,-0.002 0.496,-0 0.459,-0L0.113,-0L0.113,-0.671L0.458,-0.671C0.513,-0.671 0.564,-0.666 0.611,-0.655C0.659,-0.644 0.699,-0.626 0.734,-0.6C0.769,-0.574 0.796,-0.54 0.816,-0.497C0.835,-0.454 0.845,-0.4 0.845,-0.336ZM0.783,-0.336C0.783,-0.372 0.779,-0.404 0.772,-0.432C0.765,-0.46 0.755,-0.485 0.741,-0.506C0.728,-0.526 0.712,-0.544 0.692,-0.558C0.673,-0.572 0.651,-0.583 0.627,-0.592C0.603,-0.6 0.577,-0.606 0.549,-0.61C0.52,-0.613 0.49,-0.615 0.458,-0.615L0.174,-0.615L0.174,-0.056L0.458,-0.056C0.506,-0.056 0.55,-0.06 0.59,-0.069C0.629,-0.077 0.664,-0.092 0.692,-0.114C0.721,-0.135 0.743,-0.164 0.759,-0.2C0.775,-0.236 0.783,-0.281 0.783,-0.336Z" style="fill:rgb(239,236,238);fill-rule:nonzero;"/>
                </g>
                <g transform="matrix(200,0,0,200,2359.92,2281.67)">
                    <path d="M0.917,-0.335C0.917,-0.275 0.907,-0.223 0.885,-0.179C0.863,-0.135 0.833,-0.099 0.795,-0.071C0.757,-0.042 0.712,-0.021 0.66,-0.007C0.609,0.006 0.553,0.013 0.493,0.013C0.433,0.013 0.377,0.006 0.325,-0.007C0.273,-0.021 0.227,-0.042 0.189,-0.071C0.151,-0.099 0.12,-0.135 0.099,-0.179C0.077,-0.223 0.066,-0.275 0.066,-0.335C0.066,-0.375 0.071,-0.411 0.081,-0.444C0.091,-0.477 0.105,-0.506 0.124,-0.532C0.142,-0.558 0.164,-0.58 0.19,-0.599C0.215,-0.618 0.244,-0.634 0.276,-0.646C0.308,-0.659 0.342,-0.668 0.378,-0.674C0.415,-0.68 0.453,-0.683 0.493,-0.683C0.553,-0.683 0.609,-0.676 0.66,-0.663C0.712,-0.649 0.757,-0.628 0.795,-0.599C0.833,-0.571 0.863,-0.535 0.885,-0.491C0.907,-0.447 0.917,-0.395 0.917,-0.335ZM0.855,-0.335C0.855,-0.382 0.847,-0.424 0.832,-0.461C0.816,-0.497 0.793,-0.528 0.763,-0.553C0.733,-0.578 0.695,-0.597 0.65,-0.61C0.605,-0.622 0.553,-0.629 0.493,-0.629C0.433,-0.629 0.381,-0.622 0.335,-0.609C0.29,-0.596 0.252,-0.577 0.221,-0.552C0.191,-0.528 0.168,-0.497 0.152,-0.46C0.136,-0.424 0.128,-0.382 0.128,-0.335C0.128,-0.287 0.136,-0.245 0.152,-0.209C0.168,-0.173 0.191,-0.142 0.221,-0.117C0.252,-0.092 0.29,-0.073 0.335,-0.06C0.381,-0.047 0.433,-0.041 0.493,-0.041C0.553,-0.041 0.605,-0.047 0.65,-0.06C0.695,-0.073 0.733,-0.092 0.763,-0.117C0.793,-0.142 0.816,-0.173 0.832,-0.209C0.847,-0.245 0.855,-0.287 0.855,-0.335ZM0.666,-0.824L0.451,-0.733L0.432,-0.771L0.641,-0.875L0.666,-0.824Z" style="fill:rgb(239,236,238);fill-rule:nonzero;"/>
                </g>
                <g transform="matrix(200,0,0,200,2596.7,2281.67)">
                    <path d="M0.61,-0.619C0.6,-0.622 0.587,-0.625 0.571,-0.629C0.554,-0.632 0.532,-0.634 0.506,-0.634C0.469,-0.634 0.435,-0.629 0.403,-0.62C0.371,-0.611 0.341,-0.599 0.314,-0.584C0.286,-0.569 0.261,-0.551 0.237,-0.531C0.214,-0.51 0.193,-0.489 0.174,-0.466L0.174,-0L0.113,-0L0.113,-0.671L0.174,-0.671L0.174,-0.534C0.196,-0.557 0.219,-0.577 0.245,-0.596C0.27,-0.615 0.297,-0.631 0.326,-0.645C0.354,-0.658 0.384,-0.669 0.415,-0.677C0.446,-0.684 0.478,-0.688 0.511,-0.688C0.523,-0.688 0.533,-0.688 0.542,-0.687C0.551,-0.687 0.559,-0.686 0.567,-0.685C0.575,-0.684 0.582,-0.684 0.589,-0.683C0.596,-0.682 0.603,-0.681 0.61,-0.679L0.61,-0.619Z" style="fill:rgb(239,236,238);fill-rule:nonzero;"/>
                </g>
                <g transform="matrix(200,0,0,200,2758.67,2281.67)">
                    <path d="M0.72,-0L0.72,-0.074C0.697,-0.062 0.67,-0.05 0.64,-0.039C0.611,-0.028 0.579,-0.019 0.546,-0.011C0.513,-0.003 0.479,0.003 0.444,0.007C0.41,0.011 0.375,0.013 0.342,0.013C0.298,0.013 0.259,0.009 0.224,0.001C0.19,-0.006 0.16,-0.018 0.136,-0.033C0.112,-0.049 0.094,-0.068 0.081,-0.091C0.068,-0.114 0.061,-0.141 0.061,-0.171C0.061,-0.201 0.069,-0.227 0.084,-0.25C0.099,-0.273 0.12,-0.293 0.148,-0.31C0.176,-0.327 0.21,-0.342 0.25,-0.354C0.289,-0.366 0.333,-0.376 0.382,-0.384C0.431,-0.392 0.484,-0.399 0.541,-0.405C0.598,-0.41 0.657,-0.414 0.72,-0.418L0.72,-0.469C0.72,-0.49 0.716,-0.508 0.708,-0.524C0.701,-0.54 0.69,-0.554 0.676,-0.566C0.662,-0.578 0.645,-0.588 0.626,-0.596C0.608,-0.604 0.587,-0.61 0.565,-0.615C0.543,-0.62 0.52,-0.624 0.496,-0.626C0.472,-0.628 0.447,-0.629 0.423,-0.629C0.39,-0.629 0.36,-0.627 0.333,-0.624C0.306,-0.621 0.281,-0.616 0.257,-0.611C0.234,-0.605 0.211,-0.598 0.19,-0.591C0.168,-0.583 0.147,-0.575 0.125,-0.567L0.125,-0.638C0.17,-0.65 0.219,-0.661 0.27,-0.67C0.321,-0.679 0.375,-0.683 0.433,-0.683C0.482,-0.683 0.528,-0.679 0.57,-0.671C0.612,-0.662 0.649,-0.649 0.68,-0.631C0.711,-0.613 0.736,-0.589 0.754,-0.56C0.772,-0.531 0.781,-0.496 0.781,-0.455L0.781,-0L0.72,-0ZM0.72,-0.364C0.614,-0.358 0.523,-0.35 0.447,-0.339C0.372,-0.328 0.31,-0.315 0.262,-0.299C0.214,-0.284 0.179,-0.265 0.157,-0.245C0.135,-0.224 0.124,-0.2 0.124,-0.174C0.124,-0.152 0.129,-0.133 0.14,-0.117C0.151,-0.1 0.167,-0.086 0.187,-0.075C0.208,-0.064 0.233,-0.055 0.262,-0.05C0.291,-0.044 0.324,-0.041 0.361,-0.041C0.382,-0.041 0.404,-0.042 0.427,-0.045C0.45,-0.047 0.473,-0.051 0.496,-0.055C0.519,-0.059 0.541,-0.065 0.563,-0.071C0.586,-0.077 0.606,-0.083 0.626,-0.09C0.645,-0.097 0.663,-0.105 0.679,-0.113C0.696,-0.121 0.709,-0.13 0.72,-0.138L0.72,-0.364ZM0.613,-0.824L0.398,-0.733L0.379,-0.771L0.588,-0.875L0.613,-0.824Z" style="fill:rgb(239,236,238);fill-rule:nonzero;"/>
                </g>
                <g transform="matrix(200,0,0,200,2976.31,2281.67)">
                    <path d="M0.453,-0L0.362,-0L0.027,-0.671L0.095,-0.671L0.409,-0.042L0.723,-0.671L0.791,-0.671L0.453,-0Z" style="fill:rgb(239,236,238);fill-rule:nonzero;"/>
                </g>
                <g transform="matrix(200,0,0,200,3179.88,2281.67)">
                    <path d="M0.72,-0L0.72,-0.074C0.697,-0.062 0.67,-0.05 0.64,-0.039C0.611,-0.028 0.579,-0.019 0.546,-0.011C0.513,-0.003 0.479,0.003 0.444,0.007C0.41,0.011 0.375,0.013 0.342,0.013C0.298,0.013 0.259,0.009 0.224,0.001C0.19,-0.006 0.16,-0.018 0.136,-0.033C0.112,-0.049 0.094,-0.068 0.081,-0.091C0.068,-0.114 0.061,-0.141 0.061,-0.171C0.061,-0.201 0.069,-0.227 0.084,-0.25C0.099,-0.273 0.12,-0.293 0.148,-0.31C0.176,-0.327 0.21,-0.342 0.25,-0.354C0.289,-0.366 0.333,-0.376 0.382,-0.384C0.431,-0.392 0.484,-0.399 0.541,-0.405C0.598,-0.41 0.657,-0.414 0.72,-0.418L0.72,-0.469C0.72,-0.49 0.716,-0.508 0.708,-0.524C0.701,-0.54 0.69,-0.554 0.676,-0.566C0.662,-0.578 0.645,-0.588 0.626,-0.596C0.608,-0.604 0.587,-0.61 0.565,-0.615C0.543,-0.62 0.52,-0.624 0.496,-0.626C0.472,-0.628 0.447,-0.629 0.423,-0.629C0.39,-0.629 0.36,-0.627 0.333,-0.624C0.306,-0.621 0.281,-0.616 0.257,-0.611C0.234,-0.605 0.211,-0.598 0.19,-0.591C0.168,-0.583 0.147,-0.575 0.125,-0.567L0.125,-0.638C0.17,-0.65 0.219,-0.661 0.27,-0.67C0.321,-0.679 0.375,-0.683 0.433,-0.683C0.482,-0.683 0.528,-0.679 0.57,-0.671C0.612,-0.662 0.649,-0.649 0.68,-0.631C0.711,-0.613 0.736,-0.589 0.754,-0.56C0.772,-0.531 0.781,-0.496 0.781,-0.455L0.781,-0L0.72,-0ZM0.72,-0.364C0.614,-0.358 0.523,-0.35 0.447,-0.339C0.372,-0.328 0.31,-0.315 0.262,-0.299C0.214,-0.284 0.179,-0.265 0.157,-0.245C0.135,-0.224 0.124,-0.2 0.124,-0.174C0.124,-0.152 0.129,-0.133 0.14,-0.117C0.151,-0.1 0.167,-0.086 0.187,-0.075C0.208,-0.064 0.233,-0.055 0.262,-0.05C0.291,-0.044 0.324,-0.041 0.361,-0.041C0.382,-0.041 0.404,-0.042 0.427,-0.045C0.45,-0.047 0.473,-0.051 0.496,-0.055C0.519,-0.059 0.541,-0.065 0.563,-0.071C0.586,-0.077 0.606,-0.083 0.626,-0.09C0.645,-0.097 0.663,-0.105 0.679,-0.113C0.696,-0.121 0.709,-0.13 0.72,-0.138L0.72,-0.364Z" style="fill:rgb(239,236,238);fill-rule:nonzero;"/>
                </g>
                <g transform="matrix(200,0,0,200,3397.52,2281.67)">
                    <path d="M0.174,-0.232C0.174,-0.202 0.176,-0.176 0.181,-0.154C0.186,-0.132 0.196,-0.114 0.212,-0.1C0.228,-0.086 0.25,-0.076 0.28,-0.069C0.309,-0.062 0.348,-0.059 0.397,-0.059L0.7,-0.059L0.7,-0L0.385,-0C0.331,-0 0.287,-0.004 0.252,-0.013C0.217,-0.022 0.189,-0.035 0.168,-0.053C0.148,-0.071 0.133,-0.094 0.125,-0.122C0.117,-0.149 0.113,-0.182 0.113,-0.22L0.113,-0.671L0.174,-0.671L0.174,-0.232Z" style="fill:rgb(239,236,238);fill-rule:nonzero;"/>
                </g>
            </g>
        </g>
    </g>
</svg>
